<?xml version="1.0" encoding="UTF-8"?>
<svg id="Layer_2" data-name="Layer 2" xmlns="http://www.w3.org/2000/svg" xmlns:xlink="http://www.w3.org/1999/xlink" viewBox="0 0 78.84 90.53">
  <defs>
    <style>
      .cls-1 {
        fill: #11644e;
      }

      .cls-1, .cls-2, .cls-3, .cls-4 {
        stroke-width: 0px;
      }

      .cls-5 {
        filter: url(#drop-shadow-1);
      }

      .cls-2 {
        fill: #efca4f;
      }

      .cls-3 {
        fill: #9bb048;
      }

      .cls-4 {
        fill: #abc445;
      }
    </style>
    <filter id="drop-shadow-1" filterUnits="userSpaceOnUse">
      <feOffset dx="3.87" dy="3.87"/>
      <feGaussianBlur result="blur" stdDeviation="0"/>
      <feFlood flood-color="#000" flood-opacity=".1"/>
      <feComposite in2="blur" operator="in"/>
      <feComposite in="SourceGraphic"/>
    </filter>
  </defs>
  <g id="OBJECTS">
    <g class="cls-5">
      <path class="cls-1" d="m67.19,17.45c15.96,17.67,13.78,55.39,3.92,61.25-15.9,9.46-12.01,4.46-9.21,1.11,4.11-4.93,16.54-33.58-6.57-63.47-3.43-4.43,11.86,1.11,11.86,1.11Z"/>
      <path class="cls-1" d="m48.73,22.28c5.39-4.12,16.46-5.04,18.46-4.84,2,.2-7.6-4.27-13.22-3.06-4.13.88-14,2.85-14.22,5.14-.21,2.29,8.98,2.76,8.98,2.76Z"/>
      <path class="cls-1" d="m48.19,76.5c8.25,5.5,21.03,2.86,22.92,2.2,1.89-.66-7.57,5.54-11.69,6.46-4.12.92-14.72-1.38-15.46-3.56-.74-2.18,4.23-5.1,4.23-5.1Z"/>
      <path class="cls-3" d="m18.53,14.21c-6.45,2.7-11.32,19.25-13.66,28.1-2.34,8.85-8.02,38.37,3.41,44.89,11.42,6.52,39.87,2.3,42.63-2.68,2.75-4.98,3.09-9.26,3.7-18.24.61-8.98,1-48.76-7.19-52.06-8.2-3.3-23.03-2.45-28.88,0Z"/>
      <path class="cls-1" d="m23.96,14.8c-.09,0-.18,0-.27-.02-.94-.15-1.59-1.03-1.44-1.97.04-.25.05-.73.07-1.23.09-3.17.35-11.58,10.95-11.58,11.26,0,11.6,8.85,11.73,12.18.01.29.02.55.04.78.06.95-.66,1.77-1.61,1.84-.96.05-1.77-.66-1.84-1.61-.02-.26-.03-.55-.04-.88-.17-4.48-.95-8.86-8.28-8.86-6.7,0-7.37,3.89-7.5,8.23-.02.64-.04,1.2-.11,1.66-.13.85-.87,1.46-1.7,1.46Z"/>
      <path class="cls-4" d="m43.22,25.83c-3.07-7.67-11.69-6.34-17.82-6.34h-.77c-6.13,0-14.76-1.34-17.82,6.34-3.07,7.67-2.68,11.42,1.34,14.3,3.67,2.62,13.23,3.27,16.48,3.36v.02c.1,0,.24,0,.38,0,.14,0,.28,0,.38,0v-.02c3.25-.09,12.81-.74,16.48-3.36,4.02-2.88,4.41-6.63,1.34-14.3Z"/>
      <path class="cls-4" d="m41.26,60.56c-3.29-8.32-12.55-6.87-19.13-6.87h-.82c-6.58,0-15.84-1.45-19.13,6.87-3.29,8.32-2.88,12.39,1.44,15.51,3.94,2.85,14.21,3.54,17.69,3.64v.02c.11,0,.26,0,.41,0,.15,0,.3,0,.41,0v-.02c3.48-.1,13.75-.8,17.69-3.64,4.32-3.12,4.73-7.19,1.44-15.51Z"/>
      <path class="cls-1" d="m11.71,33.77v12.53c0,1.45,1.18,2.63,2.63,2.63s2.63-1.18,2.63-2.63v-12.53h-5.26Z"/>
      <path class="cls-2" d="m11.92,28.06h4.83c.63,0,1.14.51,1.14,1.14v5.75c0,.63-.51,1.14-1.14,1.14h-4.83c-.63,0-1.14-.51-1.14-1.14v-5.74c0-.63.51-1.14,1.14-1.14Z"/>
      <path class="cls-1" d="m16.96,34.62v-15.35c0-1.45-1.18-2.63-2.63-2.63s-2.63,1.18-2.63,2.63v15.35h5.26Z"/>
      <path class="cls-2" d="m15.32,34.88c0,.44-.35.79-.79.79h0c-.44,0-.79-.35-.79-.79v-1.07c0-.44.35-.79.79-.79h0c.44,0,.79.35.79.79v1.07Z"/>
      <path class="cls-2" d="m11.64,26.66h5.11c.63,0,1.14.51,1.14,1.14v.27c0,.63-.51,1.14-1.14,1.14h-5.1c-.63,0-1.14-.51-1.14-1.14v-.27c0-.63.51-1.14,1.14-1.14Z"/>
      <path class="cls-1" d="m31.36,34v12.53c0,1.45,1.18,2.63,2.63,2.63s2.63-1.18,2.63-2.63v-12.53h-5.26Z"/>
      <path class="cls-2" d="m31.57,28.29h4.83c.63,0,1.14.51,1.14,1.14v5.75c0,.63-.51,1.14-1.14,1.14h-4.83c-.63,0-1.14-.51-1.14-1.14v-5.75c0-.63.51-1.14,1.14-1.14Z"/>
      <path class="cls-1" d="m36.61,34.85v-15.35c0-1.45-1.18-2.63-2.63-2.63s-2.63,1.18-2.63,2.63v15.35h5.26Z"/>
      <path class="cls-2" d="m34.97,35.1c0,.44-.35.79-.79.79h0c-.44,0-.79-.35-.79-.79v-1.07c0-.44.36-.79.79-.79h0c.44,0,.79.35.79.79v1.07Z"/>
      <path class="cls-2" d="m31.29,26.89h5.11c.63,0,1.14.51,1.14,1.14v.27c0,.63-.51,1.14-1.14,1.14h-5.1c-.63,0-1.14-.51-1.14-1.14v-.27c0-.63.51-1.14,1.14-1.14Z"/>
      <path class="cls-1" d="m5.98,69.33v12.53c0,1.45,1.18,2.63,2.63,2.63s2.63-1.18,2.63-2.63v-12.53h-5.26Z"/>
      <path class="cls-2" d="m6.2,63.62h4.83c.63,0,1.14.51,1.14,1.14v5.75c0,.63-.51,1.14-1.14,1.14h-4.83c-.63,0-1.14-.51-1.14-1.14v-5.75c0-.63.51-1.14,1.14-1.14Z"/>
      <path class="cls-1" d="m11.24,70.18v-15.35c0-1.45-1.18-2.63-2.63-2.63s-2.63,1.18-2.63,2.63v15.35h5.26Z"/>
      <path class="cls-2" d="m9.6,70.43c0,.44-.35.79-.79.79h0c-.44,0-.79-.35-.79-.79v-1.07c0-.44.35-.79.79-.79h0c.44,0,.79.35.79.79v1.07Z"/>
      <rect class="cls-2" x="4.78" y="62.22" width="7.38" height="2.54" rx="1.14" ry="1.14"/>
      <path class="cls-1" d="m29.08,69.56v12.53c0,1.45,1.18,2.63,2.63,2.63s2.63-1.18,2.63-2.63v-12.53h-5.26Z"/>
      <path class="cls-2" d="m29.3,63.85h4.83c.63,0,1.14.51,1.14,1.14v5.75c0,.63-.51,1.14-1.14,1.14h-4.83c-.63,0-1.14-.51-1.14-1.14v-5.75c0-.63.51-1.14,1.14-1.14Z"/>
      <path class="cls-1" d="m34.34,70.41v-15.35c0-1.45-1.18-2.63-2.63-2.63s-2.63,1.18-2.63,2.63v15.35h5.26Z"/>
      <path class="cls-2" d="m32.7,70.66c0,.44-.35.79-.79.79h0c-.43,0-.79-.35-.79-.79v-1.07c0-.44.35-.79.79-.79h0c.44,0,.79.35.79.79v1.07Z"/>
      <path class="cls-2" d="m29.02,62.45h5.1c.63,0,1.14.51,1.14,1.14v.27c0,.63-.51,1.14-1.14,1.14h-5.11c-.63,0-1.14-.51-1.14-1.14v-.27c0-.63.51-1.14,1.14-1.14Z"/>
    </g>
  </g>
</svg>