<?xml version="1.0" encoding="UTF-8"?>
<svg id="Layer_2" data-name="Layer 2" xmlns="http://www.w3.org/2000/svg" xmlns:xlink="http://www.w3.org/1999/xlink" viewBox="0 0 98.54 87.59">
  <defs>
    <style>
      .cls-1 {
        fill: #63c3e5;
      }

      .cls-1, .cls-2, .cls-3, .cls-4, .cls-5, .cls-6 {
        stroke-width: 0px;
      }

      .cls-7 {
        filter: url(#drop-shadow-1);
      }

      .cls-2 {
        fill: #efca4f;
      }

      .cls-3 {
        fill: #9bb048;
      }

      .cls-4 {
        fill: #f1524a;
      }

      .cls-5 {
        fill: #f78346;
      }

      .cls-6 {
        fill: #dd3a36;
      }
    </style>
    <filter id="drop-shadow-1" filterUnits="userSpaceOnUse">
      <feOffset dx="3.87" dy="3.87"/>
      <feGaussianBlur result="blur" stdDeviation="0"/>
      <feFlood flood-color="#000" flood-opacity=".1"/>
      <feComposite in2="blur" operator="in"/>
      <feComposite in="SourceGraphic"/>
    </filter>
  </defs>
  <g id="OBJECTS">
    <g class="cls-7">
      <path class="cls-1" d="m98.54,64.85c-5.47,0-6.43-6.83-.56-9.29-13.79-.53-10.24,9.29-15.86,9.29s-6.43-6.83-.56-9.29c-13.79-.53-10.24,9.29-15.86,9.29s-6.43-6.83-.56-9.29c-13.79-.53-10.24,9.29-15.86,9.29s-6.43-6.83-.56-9.29c-13.79-.53-10.24,9.29-15.86,9.29s-6.43-6.83-.56-9.29c-13.79-.53-10.24,9.29-15.86,9.29s-6.43-6.83-.56-9.29c-13.79-.53-10.24,9.29-15.86,9.29v22.73h98.54v-22.73Z"/>
      <path class="cls-5" d="m26.84,69.28c6.62,3.55,14.84,5.66,23.76,5.66s17.31-2.16,23.97-5.78c-.66-12.6-11.09-22.62-23.86-22.62s-23.26,10.08-23.87,22.74Z"/>
      <g>
        <path class="cls-2" d="m16.75,29.05c.44-.25.85-.61,1.18-1.02,4.4,6.54,16.95,25.69,20.12,31.42.33.59-1.19.2-1.11.39.83,1.95-14.93-22.49-20.2-30.79Z"/>
        <g>
          <path class="cls-5" d="m22.49,27.38c-2.14.31-3.79.67-5.14,1.07.26-.34.56-.62.91-.92,1.17-1,6.84-3.65,10.23-4.91.41.05.83.04,1.22-.06.84-.22,1.94-.45,2.82-.48,2.62-.09,4.65-.56,6.73.06-1.1,2.48.44,5.7,1.19,8.08-3.03-1.32-11.73-3.75-17.96-2.84Z"/>
          <path class="cls-2" d="m22.49,27.38c6.23-.91,14.92,1.52,17.96,2.84,0,0,0,0,0,0-1.33,1.2-2.81,2.31-4.05,3.64-.76.82-1.4,1.77-2.1,2.63-.8.99-1.66,1.92-2.35,3-.47.73-.89,1.49-1.31,2.26-.17.31-.32.86-.6,1.09-.03.03-.07.06-.11.08-2.32-3.25-8.06-10.86-12.21-14.59,1.28-.36,2.82-.68,4.77-.96Z"/>
          <path class="cls-5" d="m15.15,35.58c.91-4.51,1.4-6.1,2.19-7.12.12-.04.25-.07.37-.11,4.15,3.73,9.89,11.34,12.21,14.59-.58.39-1.64.56-2.28.76-1.29.39-2.56.78-3.82,1.26-1.96.75-3.87,1.56-5.68,2.66-1.28.78-2.72,1.47-3.85,2.44-.35-3.24-.25-8.98.86-14.48Z"/>
          <path class="cls-5" d="m9.49,38.04c-.94,1.85-1.65,3.41-2.3,4.85.06-.39.11-.79.19-1.18.13-.59.3-1.18.41-1.77.19-1.03.2-1.92.57-2.91.46-1.25,1.13-2.51,1.89-3.63.65-.96,1.37-1.81,2.17-2.61,1.37-.89,2.66-1.6,4.49-2.2-.35.39-.66.73-.92,1.02-1.82,1.97-4.87,5.21-6.49,8.43Z"/>
          <path class="cls-2" d="m6.27,46.24c.19-.73.44-1.45.66-2.18.12-.39.19-.78.24-1.17.65-1.44,1.37-3,2.3-4.85,1.63-3.21,4.68-6.45,6.49-8.43.26-.29.57-.63.92-1.02.14-.05.29-.09.44-.14-.79,1.03-1.28,2.62-2.19,7.12-1.11,5.5-1.21,11.24-.86,14.48-.01.01-.03.02-.04.03-.53-.32-1.22-.41-1.79-.64-.93-.36-1.85-.78-2.8-1.05-1.28-.37-2.54-.46-3.82-.64.04-.49.31-1.03.44-1.52Z"/>
          <path class="cls-2" d="m22.78,22.9c1.51-.65,3.56-1,4.88-.48.26.1.54.18.82.22-3.39,1.26-9.06,3.9-10.23,4.91-.26.22-.49.43-.7.67-.06-.05-.11-.1-.17-.14,1.33-1.46,3.06-3.33,4.75-4.85.22-.12.44-.22.65-.31Z"/>
          <path class="cls-2" d="m17.39,28.06c1.33-1.46,3.06-3.33,4.75-4.85-2.26,1.17-5.02,3.46-5.99,3.71-.06.02-.12.03-.17.05.12.08.23.16.35.25-.12-.09-.24-.17-.35-.25-.83.29-.37.93-2.46,2.78-.38.34-.75.68-1.1,1.04,1.47-.96,2.87-1.71,4.93-2.33.07-.09.14-.17.21-.25-.1-.09-.19-.17-.29-.25.04.04.08.07.12.1Zm-.52-.43c.07.05.14.11.21.17-.07-.06-.14-.11-.21-.17Zm-.4-.31c.08.06.15.11.23.17-.08-.06-.15-.12-.23-.17Z"/>
        </g>
        <path class="cls-2" d="m15.35,26.86c-.22-1.46,0-2.13,1.38-.51.16.18.57.78,1.19,1.69-.34.41-.75.76-1.18,1.02-.88-1.38-1.39-2.2-1.39-2.2Z"/>
      </g>
      <g>
        <path class="cls-3" d="m71.15,14.02c-4.83-2.16-20.3-4.8-23.78-1.49-3.48,3.31-3.28,11.35-2.6,14.02.68,2.66,4.71-7.67,4.71-7.67l1.8,7.1s8.7-3.83,11.04-4.85c2.34-1.03,7.5-.6,8.51-.85,1.01-.25,4.23-4.5.31-6.25Z"/>
        <path class="cls-3" d="m73.41,17.32c3.53.94,9.11,16.52,9.05,18.81-.06,2.29-2.94,5.9-5.72,8.39-2.77,2.49-3.84-6.76-4.04-8.64-.21-1.88,2.97-5.6,2.97-5.6l-4.83,1.65s-1.22-7.73-1.19-10.34c.02-2.61.17-5.22,3.77-4.26Z"/>
        <path class="cls-3" d="m72.65,14.83c4.01-1.37,16.57-2.57,19.12.11,2.54,2.68,1.81,8.73,1.08,10.7-.73,1.97-3.22-6.03-3.22-6.03l-1.95,5.26s-7-2.08-8.8-2.98c-1.8-.9-5.64-2.1-6.43-2.34-.79-.24-3.06-3.62.19-4.73Z"/>
        <path class="cls-3" d="m74.71,14.83c.76-2.87-8.01-13.03-9.62-13.96-5.56-3.2-14.62,3.3-11.71,4.13,7.47,2.12,7.63,3.87,7.63,3.87l5.46-.84-3.11,2.74s4.96,3.97,6.81,5c1.85,1.03,3.75,1.98,4.52-.94Z"/>
        <path class="cls-3" d="m72.09,13.92c-.09-4.77,5.67-13.94,9.24-12.23,3.58,1.71,7.96,4.2,6.15,5.5s-13.69,12.12-15.27,7.49l-.12-.76Z"/>
        <g>
          <path class="cls-4" d="m62.86,32.09c.63.08,1.25.83,1.89,1.28.41-1.65.91-3.21,1.5-4.6-.06-.05-.13-.1-.2-.14-.65-.39-1.13-.37-1.83-.54-.63-.15-1.07-.27-1.47-.52-.62,1.38-1.24,2.97-1.82,4.72.83.32,1.25-.29,1.93-.21Z"/>
          <path class="cls-6" d="m64.21,28.09c.7.17,1.19.15,1.83.54.07.04.14.09.2.14,1.05-2.48,2.41-4.43,4.16-5.35l-3.97-1.97c-.88.86-2.28,3-3.69,6.13.39.25.84.36,1.47.52Z"/>
          <path class="cls-6" d="m61.06,37.72c.91.12,1.95-.32,2.82-.2.24-1.41.52-2.81.86-4.16-.63-.46-1.26-1.21-1.89-1.28-.69-.08-1.1.53-1.93.21-.46,1.41-.9,2.93-1.28,4.55.54.43,1.06.83,1.42.88Z"/>
          <path class="cls-4" d="m61.05,43.71c.79-.08,1.44.1,2.01.42.18-2.11.45-4.38.83-6.61-.88-.12-1.91.32-2.82.2-.36-.05-.87-.45-1.42-.88-.51,2.13-.92,4.43-1.19,6.87.15.13.32.24.53.33,1.26.55.96-.21,2.07-.33Z"/>
          <path class="cls-6" d="m61.05,43.71c-1.11.12-.81.89-2.07.33-.21-.09-.38-.2-.53-.33-.24,2.13-.36,4.38-.34,6.7.04.02.08.04.12.06.86.38,1.22.16,2.15.07.74-.07,1.59-.21,2.3-.07.05-1.75.16-3.95.37-6.34-.57-.32-1.21-.51-2.01-.42Z"/>
          <path class="cls-4" d="m58.23,50.48s-.08-.04-.12-.06c0,.67.02,1.35.05,2.04.08,1.72,4.47,1.97,4.47,1.97,0,0-.03-1.54.05-3.95-.71-.14-1.56,0-2.3.07-.93.09-1.29.31-2.15-.07Z"/>
        </g>
        <path class="cls-4" d="m70.01,21.42c-.41,1.66-2.08,2.67-3.73,2.27-1.66-.41-2.67-2.08-2.27-3.73.41-1.66,2.08-2.67,3.73-2.27,1.66.41,2.67,2.08,2.27,3.74Z"/>
        <path class="cls-4" d="m73.7,23.44c-.45,1.83-2.3,2.96-4.13,2.51-1.83-.45-2.96-2.3-2.51-4.13.45-1.83,2.3-2.96,4.13-2.51,1.83.45,2.96,2.3,2.51,4.13Z"/>
      </g>
    </g>
  </g>
</svg>