<?xml version="1.0" encoding="UTF-8"?>
<svg id="Layer_2" data-name="Layer 2" xmlns="http://www.w3.org/2000/svg" xmlns:xlink="http://www.w3.org/1999/xlink" viewBox="0 0 50.87 65.51">
  <defs>
    <style>
      .cls-1 {
        stroke: #ccc;
        stroke-width: .97px;
      }

      .cls-1, .cls-2 {
        fill: none;
        stroke-miterlimit: 10;
      }

      .cls-3 {
        fill: #63c3e5;
      }

      .cls-3, .cls-4, .cls-5, .cls-6, .cls-7 {
        stroke-width: 0px;
      }

      .cls-4 {
        fill: #e6e6e6;
      }

      .cls-8 {
        filter: url(#drop-shadow-1);
      }

      .cls-5 {
        fill: #fff;
      }

      .cls-2 {
        stroke: #f78346;
        stroke-width: 1.93px;
      }

      .cls-6 {
        fill: #f78346;
      }

      .cls-7 {
        fill: #f2534e;
      }
    </style>
    <filter id="drop-shadow-1" filterUnits="userSpaceOnUse">
      <feOffset dx="3.87" dy="3.87"/>
      <feGaussianBlur result="blur" stdDeviation="0"/>
      <feFlood flood-color="#000" flood-opacity=".1"/>
      <feComposite in2="blur" operator="in"/>
      <feComposite in="SourceGraphic"/>
    </filter>
  </defs>
  <g id="OBJECTS">
    <g class="cls-8">
      <g>
        <path class="cls-5" d="m48.94,39.8c.15,12.98-10.25,23.62-23.23,23.77-12.98.15-23.62-10.25-23.77-23.23-.15-12.98,10.25-23.62,23.24-23.77,12.98-.15,23.62,10.25,23.77,23.23Z"/>
        <path class="cls-6" d="m25.43,65.51C11.57,65.51.16,54.23,0,40.36c-.08-6.79,2.5-13.21,7.25-18.07,4.75-4.86,11.11-7.58,17.9-7.65h.3c13.86,0,25.27,11.28,25.43,25.14.16,14.02-11.12,25.56-25.14,25.72h-.29Zm.01-47h-.25c-5.76.07-11.15,2.37-15.18,6.49-4.03,4.12-6.21,9.56-6.15,15.32.13,11.76,9.81,21.32,21.57,21.32h.25c11.89-.14,21.46-9.92,21.32-21.82-.13-11.76-9.81-21.32-21.56-21.32Z"/>
      </g>
      <path class="cls-1" d="m41.28,39.89c.1,8.75-6.91,15.93-15.67,16.03-8.75.1-15.93-6.92-16.03-15.67-.1-8.75,6.91-15.93,15.67-16.03,8.75-.1,15.93,6.91,16.03,15.67Z"/>
      <polygon class="cls-4" points="26.33 40.94 40.05 39.9 26.31 39.18 25.27 25.45 24.54 39.2 10.82 40.24 24.57 40.96 25.6 54.69 26.33 40.94"/>
      <g>
        <polygon class="cls-7" points="24.1 38.76 38.33 26.88 26.78 41.38 24.1 38.76"/>
        <polygon class="cls-3" points="26.78 41.38 12.54 53.26 24.1 38.76 26.78 41.38"/>
      </g>
      <rect class="cls-6" x="20.31" y="8.34" width="9.63" height="8.23" rx="3.95" ry="3.95" transform="translate(-.14 .29) rotate(-.66)"/>
      <path class="cls-2" d="m21.44,1.01h7.23c2.18,0,3.94,1.77,3.94,3.94v2.24c0,2.18-1.77,3.95-3.95,3.95h-7.23c-2.18,0-3.94-1.77-3.94-3.94v-2.23c0-2.18,1.77-3.95,3.95-3.95Z" transform="translate(-.07 .29) rotate(-.66)"/>
    </g>
  </g>
</svg>