<?xml version="1.0" encoding="UTF-8"?>
<svg id="Layer_2" data-name="Layer 2" xmlns="http://www.w3.org/2000/svg" xmlns:xlink="http://www.w3.org/1999/xlink" viewBox="0 0 162.84 109.07">
  <defs>
    <style>
      .cls-1 {
        fill: #63c3e5;
      }

      .cls-1, .cls-2, .cls-3, .cls-4 {
        stroke-width: 0px;
      }

      .cls-5 {
        filter: url(#drop-shadow-1);
      }

      .cls-2 {
        fill: #fff;
      }

      .cls-3 {
        opacity: .1;
      }

      .cls-4 {
        fill: #f2f2f2;
      }
    </style>
    <filter id="drop-shadow-1" filterUnits="userSpaceOnUse">
      <feOffset dx="3.87" dy="3.87"/>
      <feGaussianBlur result="blur" stdDeviation="0"/>
      <feFlood flood-color="#000" flood-opacity=".1"/>
      <feComposite in2="blur" operator="in"/>
      <feComposite in="SourceGraphic"/>
    </filter>
  </defs>
  <g id="OBJECTS">
    <g id="New_Symbol_2" data-name="New Symbol 2">
      <g class="cls-5">
        <g>
          <polygon class="cls-4" points="8.11 95.28 8.11 28.59 8.11 22.23 8.11 9.47 40.72 15.22 40.72 7.18 0 0 0 101.89 40.72 109.07 40.72 101.03 8.11 95.28"/>
          <path class="cls-1" d="m37.24,36.68c-.36.64-.14,1.64.49,2.23l2.99,2.79v-11.14s0,0,0,.01l-3.48,6.1Z"/>
          <path class="cls-1" d="m39.44,55.77l-2.18-.09c-.79-.03-1.43.59-1.43,1.38v.64c0,.79.48,1.78,1.07,2.19.59.41,1.19.55,1.33.3.14-.25.54-.44.88-.41.35.03.55.6.44,1.27-.1.67.24,1.27.76,1.33.14.02.29.08.42.16v-6.26c-.4-.29-.87-.48-1.29-.5Z"/>
          <path class="cls-1" d="m39.46,64.31l-1.08-.99c-.64-.58-1.75-1.44-2.47-1.9l-4.33-2.79c-.72-.46-1.62-1.47-2-2.23l-1.02-2.04c-.38-.76-1.16-1.92-1.73-2.57l-1.45-1.64c-.57-.65-1.04-1.83-1.04-2.62v-2.39c0-.79-.39-2.02-.86-2.74l-5.22-7.89c-.47-.72-1.49-1.26-2.27-1.2l-4.77.34c-.77.06-1.62-.55-1.88-1.34l-1.2-3.71v66.69l32.61,5.75v-35.73c-.47-.33-.94-.69-1.27-.99Z"/>
          <path class="cls-1" d="m11.57,21.61l5.14,2.12c.78.32,2.06.66,2.86.76l4.18.52c.8.1,2.09.35,2.89.56l13.29,3.48c.37.1.64.3.79.55v-14.36L8.11,9.47v12.75l.9-.53c.63-.37,1.78-.41,2.56-.09Z"/>
          <path class="cls-2" d="m11.19,33.64l4.77-.34c.77-.06,1.79.49,2.27,1.2l5.22,7.89c.48.72.86,1.95.86,2.74v2.39c0,.79.47,1.97,1.04,2.62l1.45,1.64c.57.65,1.35,1.8,1.73,2.57l1.02,2.04c.38.76,1.28,1.76,2,2.23l4.33,2.79c.72.46,1.83,1.32,2.47,1.9l1.08.99c.33.3.79.66,1.27.99v-2.76c-.13-.09-.27-.15-.42-.16-.52-.06-.86-.65-.76-1.33.11-.67-.09-1.24-.44-1.27-.35-.03-.75.16-.88.41-.14.25-.74.12-1.33-.3-.59-.42-1.07-1.4-1.07-2.19v-.64c0-.79.65-1.41,1.43-1.38l2.18.09c.42.02.88.21,1.29.5v-14.58l-2.99-2.79c-.63-.59-.86-1.59-.49-2.23l3.48-6.1s0,0,0-.01v-.97c-.15-.25-.42-.45-.79-.55l-13.29-3.48c-.79-.21-2.09-.46-2.89-.56l-4.18-.52c-.8-.1-2.08-.44-2.86-.76l-5.14-2.12c-.77-.32-1.93-.28-2.56.09l-.9.53v6.36l1.2,3.71c.26.79,1.1,1.4,1.88,1.34Z"/>
        </g>
        <g>
          <polygon class="cls-4" points="47.52 14.02 67.91 10.43 81.44 8.04 81.44 0 40.72 7.18 40.72 15.22 47.52 14.02"/>
          <polygon class="cls-4" points="40.72 101.03 40.72 109.07 81.44 101.89 81.44 93.85 40.72 101.03"/>
          <path class="cls-1" d="m80.88,61.6c-.14-.75-.91-1.34-1.7-1.31l-6.29.25c-.79.03-1.67-.51-1.95-1.2l-.99-2.4c-.28-.69-.18-1.87.23-2.62l2.81-5.17c.41-.75,1.05-1.42,1.44-1.49.38-.07,1.34-.36,2.12-.65l2.34-.87c.78-.29,1.51-.12,1.61.38.08.36.46.74.95.97v-4.74l-.45-.22c-.66-.32-1.74-.13-2.4.42l-3.41,2.88c-.66.56-1.6.94-2.09.86-.49-.09-.88-.8-.88-1.59v-.39c0-.79.65-1.55,1.45-1.69l.64-.11c.8-.14,1.22-.81.94-1.48-.28-.67.07-1.63.77-2.13l.73-.52c.7-.5,1.72-1.46,2.27-2.13,0,0,1.15-1.42,1.15-1.54s-.07-.23-.07-.23c-.38-.63-.44-1.3-.12-1.49.31-.19.77.09,1.01.63.08.19.24.34.45.45v-2.6c-.29-.22-.72-.26-1.14-.05-.63.32-1.27-.03-1.43-.78l-.04-.19c-.16-.74.08-1.95.54-2.67l2.08-3.3V8.04l-13.53,2.39-1,11.19c-.07.8-.54,2.03-1.04,2.73l-6.02,8.47c-.5.7-1.45,1.37-2.11,1.49-.66.12-1.48-.32-1.83-.97l-8.73-16.55c-.34-.65-.26-1.79.19-2.52l.15-.25-6.8,1.2v14.36c.17.23.19.57,0,.97v11.14l.77.44c.63.37,1.19.01,1.23-.78l.22-4.13c.04-.8.62-1.8,1.28-2.22.66-.43,1.65-.39,2.2.08l5.83,4.98c.55.47.56,1.41.02,2.09l-1.83,2.28c-.54.68-1.37,1.82-1.83,2.54l-2.97,4.59c-.47.72-1.4,1.76-2.06,2.31l-.1.08c-.67.55-1.04,1.59-.84,2.31.21.72.21,1.43,0,1.57-.21.14-.69-.26-1.06-.89l-.02-.03c-.18-.3-.48-.52-.84-.65v6.26c.35.11.64.45.72.91.11.64.82,1.13,1.58,1.1.77-.03,1.88-.43,2.46-.87.59-.45,1.67-.67,2.41-.49l4.79,1.17c.73.18,1.62.67,1.96,1.09.35.42,1.23.92,1.96,1.12l4.18,1.1c.73.19.97.95.53,1.69l-7.13,12.02c-.44.74-1.16,1.94-1.6,2.68l-4.46,7.42c-.44.74-.45,1.82-.01,2.4l.56.75c.44.58.14,1.18-.66,1.32h0c-.8.14-1.66-.32-1.92-1.02l-.96-2.63c-.26-.7-.35-1.93-.21-2.73l2.14-12.18c.14-.8-.3-1.69-.99-1.97l-.54-.22c-.69-.28-1.53-1.04-1.88-1.69l-1.01-1.88c-.35-.65-.42-1.83-.15-2.62l.55-1.65c.27-.79-.13-1.54-.89-1.67l-.17-.03c-.36-.06-.82-.19-1.27-.34v35.73l40.72-7.18v-29.32l-.56-2.92Zm-6.33-28.37c.45-.08,1.02.44,1.25,1.15l.02.07c.24.71.54,1.91.68,2.66.14.75-.25,1.45-.85,1.56-.61.11-.92-.43-.69-1.19.23-.76.1-1.9-.28-2.53l-.26-.44c-.38-.63-.32-1.21.13-1.29Zm-1.58,3.16c.42-.42.9-.4,1.07.03.17.43,0,1.23-.38,1.76-.38.53-.87.52-1.08-.03-.21-.55-.04-1.34.38-1.76Zm-23.42,23.87c-.23.04-.85.04-1.39,0-.53-.04-1.38.11-1.87.33-.5.22-.91.12-.91-.22s-.35-.46-.78-.27c-.43.19-1.02.13-1.33-.14-.3-.27-.98-.41-1.52-.32-.53.09-.53-.02,0-.25.53-.23,1.58-.32,2.34-.19l4.51.75c.75.13,1.18.26.95.3Zm19.82-31.04c-.59.54-1.61.7-2.27.37h0c-.66-.34-1-.98-.75-1.44.24-.46,1.04-.94,1.77-1.06.73-.13,1.55.08,1.83.46.28.38.02,1.13-.57,1.67Z"/>
          <path class="cls-2" d="m74.68,34.96c.38.63.51,1.77.28,2.53-.23.76.09,1.3.69,1.19.61-.11.99-.81.85-1.56-.14-.75-.45-1.95-.68-2.66l-.02-.07c-.24-.71-.8-1.23-1.25-1.15-.45.08-.51.66-.13,1.29l.26.44Z"/>
          <path class="cls-2" d="m73.67,38.18c.38-.53.55-1.32.38-1.76-.17-.43-.66-.45-1.07-.03-.42.42-.59,1.21-.38,1.76.21.55.69.56,1.08.03Z"/>
          <path class="cls-2" d="m69.94,27.56c-.28-.38-1.1-.59-1.83-.46-.73.13-1.53.61-1.77,1.06-.25.46.09,1.1.75,1.43h0c.66.33,1.68.17,2.27-.37.59-.53.85-1.28.57-1.67Z"/>
          <path class="cls-2" d="m47.18,16.8l8.73,16.55c.34.65,1.17,1.09,1.83.97.66-.12,1.61-.79,2.11-1.49l6.02-8.47c.5-.7.97-1.93,1.04-2.73l1-11.19-20.38,3.59-.15.25c-.45.73-.53,1.87-.19,2.52Z"/>
          <path class="cls-2" d="m41.56,56.92l.02.03c.38.63.86,1.03,1.06.89.21-.14.21-.84,0-1.57-.21-.72.17-1.76.84-2.31l.1-.08c.67-.55,1.6-1.59,2.06-2.31l2.97-4.59c.47-.72,1.29-1.87,1.83-2.54l1.83-2.28c.54-.68.53-1.62-.02-2.09l-5.83-4.98c-.55-.47-1.54-.51-2.2-.08-.66.43-1.24,1.43-1.28,2.22l-.22,4.13c-.04.8-.6,1.15-1.23.78l-.77-.44v14.58c.35.13.66.35.84.65Z"/>
          <path class="cls-2" d="m41.99,65.64l.17.03c.75.13,1.15.88.89,1.67l-.55,1.65c-.27.79-.2,1.97.15,2.62l1.01,1.88c.35.65,1.2,1.41,1.88,1.69l.54.22c.69.28,1.13,1.17.99,1.97l-2.14,12.18c-.14.8-.05,2.03.21,2.73l.96,2.63c.26.7,1.12,1.16,1.92,1.02h0c.8-.14,1.09-.74.66-1.32l-.56-.75c-.44-.58-.43-1.66.01-2.4l4.46-7.42c.44-.74,1.16-1.94,1.6-2.68l7.13-12.02c.44-.74.2-1.5-.53-1.69l-4.18-1.1c-.73-.19-1.61-.7-1.96-1.12-.35-.42-1.23-.91-1.96-1.09l-4.79-1.17c-.73-.18-1.82.04-2.41.49-.59.45-1.7.84-2.46.87-.76.03-1.47-.47-1.58-1.1-.07-.46-.37-.8-.72-.91v2.76c.45.15.9.28,1.27.34Z"/>
          <path class="cls-2" d="m48.6,59.96l-4.51-.75c-.75-.12-1.81-.04-2.34.19-.53.23-.53.34,0,.25.53-.09,1.22.05,1.52.32.3.27.9.33,1.33.14.43-.19.78-.07.78.27s.41.44.91.22c.5-.22,1.34-.37,1.87-.33.53.04,1.16.04,1.39,0,.23-.04-.19-.18-.95-.3Z"/>
          <path class="cls-2" d="m81,34.04c-.24-.54-.7-.83-1.01-.63-.31.19-.26.86.12,1.49,0,0,.07.11.07.23s-1.15,1.54-1.15,1.54c-.55.67-1.57,1.63-2.27,2.13l-.73.52c-.7.5-1.05,1.46-.77,2.13.28.67-.15,1.34-.94,1.48l-.64.11c-.8.14-1.45.9-1.45,1.69v.39c0,.79.4,1.51.88,1.59.49.09,1.42-.3,2.09-.86l3.41-2.88c.66-.56,1.74-.75,2.4-.42l.45.22v-8.28c-.2-.11-.36-.26-.45-.45Z"/>
          <path class="cls-2" d="m80.49,46.54c-.1-.5-.83-.67-1.61-.38l-2.34.87c-.78.29-1.74.58-2.12.65-.38.07-1.03.74-1.44,1.49l-2.81,5.17c-.41.75-.51,1.93-.23,2.62l.99,2.4c.28.69,1.16,1.23,1.95,1.2l6.29-.25c.79-.03,1.55.56,1.7,1.31l.56,2.92v-17.01c-.49-.24-.88-.61-.95-.97Z"/>
          <path class="cls-2" d="m78.83,30.88l.04.19c.16.74.81,1.09,1.43.78.42-.21.85-.18,1.14.05v-6.99l-2.08,3.3c-.46.73-.7,1.93-.54,2.67Z"/>
        </g>
        <g>
          <polygon class="cls-4" points="154.69 9.49 154.69 26.05 154.69 27.45 154.69 95.29 122.16 101.03 122.16 109.07 162.8 101.9 162.8 .01 122.16 7.18 122.16 15.22 154.69 9.49"/>
          <path class="cls-1" d="m150.82,30.59l-3.93,2.91c-.69.51-1.58,1.55-1.97,2.31l-1.99,3.86c-.39.76-.77.74-.84-.03l-.12-1.25c-.07-.77.24-2,.7-2.73l1.25-2c.46-.73.21-1-.54-.6l-2.58,1.37c-.75.4-1.91,1.18-2.57,1.73l-2.9,2.42c-.66.56-.88,1.52-.49,2.13l.72,1.13c.39.62.24,1.65-.34,2.29l-3.7,4.08c-.58.64-.89,1.76-.68,2.48.21.72.07,1.54-.32,1.81-.38.27-.87-.09-1.07-.82l-.13-.46c-.21-.73-.95-1.16-1.64-.97-.7.19-1.03.91-.73,1.59l.33.78c.29.68.32,1.89.07,2.69l-.47,1.49c-.25.79-1.09,1.7-1.87,2.01l-1.09.44c-.57.23-1.25.59-1.76.92v11.35c.05,0,.1,0,.15-.02.73-.13,1.54-.12,1.81.02.27.14.85.11,1.29-.06.44-.17,1.03-.25,1.31-.19.28.07,1,.05,1.6-.03.6-.08,1.19-.02,1.31.15.12.16-.44.37-1.24.46l-4.1.48c-.58.07-1.42.09-2.12.06v28.64l32.52-5.74V27.45l-1.41,1.2c-.66.56-1.77,1.44-2.46,1.95Zm-24.73,38.53c-.3.72-1.11,1.29-1.79,1.28-.68-.02-1.37-.46-1.52-.99-.15-.53.22-1.46.83-2.08l.57-.58c.61-.62,1.41-1.03,1.78-.91.37.12.67.61.67,1.09s-.25,1.47-.55,2.19Zm12.55-.28l.69.77c.48.54.3.79-.4.54l-.14-.05c-.7-.25-1.47-.26-1.7-.04-.23.22-.86.48-1.39.58-.53.09-.89-.14-.8-.52.09-.39-.34-.76-.97-.83-.63-.07-1.4-.33-1.73-.57-.32-.24-.32-.64,0-.88.32-.24.72-.2.89.1.16.29.52.38.8.19.28-.19,1.14-.33,1.93-.31h.53c.78.03,1.82.49,2.3,1.03Zm-3.07-22.28c.19-.61.83-.98,1.43-.84.6.15.92.56.72.92-.21.36-.85.74-1.43.84-.58.1-.9-.31-.72-.92Zm-3.58,5.87c.21-.35.74-.85,1.18-1.13.44-.27,1.09-1.05,1.43-1.74.35-.68.78-1.27.97-1.3.19-.03.34.41.34.99s-.15,1.37-.34,1.77c-.19.4-.98.95-1.76,1.23h-.01c-.78.28-1.35.91-1.26,1.4.09.49-.08.93-.38.99-.3.05-.55-.28-.55-.74s.17-1.12.38-1.47Zm-2.49,12.78c-.18.22-.66-.11-1.05-.73l-1.1-1.73c-.39-.62-.45-1.42-.12-1.77.32-.36.57-.25.55.24-.02.49.34.97.8,1.07.46.1.94.72,1.05,1.36.12.64.06,1.35-.13,1.57Zm11.3,12.83l-.44,2.27c-.16.8-.83,1.9-1.5,2.45l-.72.58c-.67.54-1.72.66-2.32.25,0,0-3.19-2.14-3.45-2.09-.25.04-5.55,2.27-5.55,2.27-.77.33-1.58,0-1.79-.73l-1-3.44c-.21-.73.16-1.76.84-2.31l5.02-4.09c.67-.55,1.73-1.08,2.35-1.19.62-.11,1.42.28,1.77.88.35.59,1.04.5,1.53-.2l.1-.14c.49-.71,1.16-.74,1.49-.08l.34.7c.32.66,1.07,1.56,1.66,1.99l.9.66c.59.43.94,1.44.78,2.24Zm7.95,7.36l-.18.37c-.37.77-1.18,1.29-1.81,1.15-.63-.13-.7-.79-.15-1.47l1.07-1.33c.54-.68,1.15-.98,1.36-.67.21.31.08,1.19-.29,1.95Zm2.82-3.9c-.28.53-.73,1.01-1.01,1.06-.28.05-.62-.53-.76-1.28l-.12-.66c-.14-.75.29-1.11.95-.78l.24.12c.66.32.98,1.02.7,1.55Z"/>
          <path class="cls-1" d="m123.26,20.87c.42.6,1.32,1.33,1.99,1.63l4.24,1.87c.67.3,1.84.2,2.58-.22l3.12-1.76c.74-.42,1.94-.6,2.66-.39l3.94,1.11c.72.2,1.92.5,2.66.67l10.2,2.27s.02,0,.04.01V9.49l-32.52,5.74v4.09l1.09,1.55Z"/>
          <path class="cls-2" d="m139.12,75.15c-.59-.43-1.33-1.33-1.66-1.99l-.34-.7c-.32-.67-.99-.63-1.49.08l-.1.14c-.49.71-1.18.8-1.53.2-.35-.59-1.14-.99-1.77-.88-.63.11-1.69.65-2.35,1.19l-5.02,4.09c-.67.55-1.05,1.58-.84,2.31l1,3.44c.21.72,1.02,1.05,1.79.73,0,0,5.29-2.22,5.55-2.27.25-.04,3.45,2.09,3.45,2.09.61.41,1.65.29,2.32-.25l.72-.58c.67-.54,1.35-1.65,1.5-2.45l.44-2.27c.16-.8-.19-1.81-.78-2.24l-.9-.66Z"/>
          <path class="cls-2" d="m150.87,79.96l-.24-.12c-.66-.32-1.09.03-.95.78l.12.66c.14.75.48,1.33.76,1.28.28-.05.73-.52,1.01-1.06.28-.53-.04-1.23-.7-1.55Z"/>
          <path class="cls-2" d="m147.68,84.13l-1.07,1.33c-.54.68-.47,1.34.15,1.47.63.13,1.44-.39,1.81-1.15l.18-.37c.37-.76.5-1.64.29-1.95-.21-.31-.82,0-1.36.67Z"/>
          <path class="cls-2" d="m124.29,72.33l4.1-.48c.79-.09,1.35-.3,1.24-.46-.12-.16-.7-.23-1.31-.15-.6.08-1.32.1-1.6.03-.28-.07-.87.02-1.31.19-.44.17-1.02.2-1.29.06-.27-.14-1.08-.14-1.81-.02-.05,0-.1.01-.15.02v.87c.71.03,1.54,0,2.12-.06Z"/>
          <path class="cls-2" d="m125.96,65.85c-.37-.12-1.17.29-1.78.91l-.57.58c-.61.62-.98,1.55-.83,2.08.15.52.83.97,1.52.99.68.02,1.49-.56,1.79-1.28.3-.72.55-1.7.55-2.19s-.3-.97-.67-1.09Z"/>
          <path class="cls-2" d="m129.63,63.66c-.12-.65-.59-1.26-1.05-1.36-.46-.1-.82-.58-.8-1.07.02-.49-.22-.59-.55-.24-.32.36-.27,1.15.12,1.77l1.1,1.73c.39.62.87.95,1.05.73.18-.22.24-.92.13-1.57Z"/>
          <path class="cls-2" d="m135.81,67.82c-.78-.02-1.65.12-1.93.31-.28.19-.64.1-.8-.19-.16-.29-.56-.34-.89-.1-.32.24-.32.64,0,.88.32.24,1.1.5,1.73.57.63.07,1.06.45.97.83-.09.38.27.62.8.52.53-.09,1.16-.35,1.39-.58.23-.23,1-.21,1.7.04l.14.05c.7.25.88,0,.4-.54l-.69-.77c-.48-.54-1.52-1-2.3-1.02h-.53Z"/>
          <path class="cls-2" d="m136.28,47.49c.58-.1,1.22-.48,1.43-.84.21-.36-.12-.77-.72-.92-.6-.15-1.25.23-1.43.84-.19.61.14,1.02.72.92Z"/>
          <path class="cls-2" d="m132.15,54.65c.3-.05.47-.5.38-.99-.09-.49.47-1.11,1.26-1.39h.01c.79-.28,1.58-.83,1.76-1.23.19-.4.34-1.2.34-1.77s-.15-1.02-.34-.99c-.19.03-.62.62-.97,1.3-.35.68-.99,1.46-1.43,1.74-.44.27-.97.78-1.18,1.13-.21.35-.38,1.01-.38,1.47s.25.79.55.74Z"/>
          <path class="cls-2" d="m144.45,23.77c-.74-.16-1.93-.47-2.66-.67l-3.94-1.11c-.72-.21-1.92-.03-2.66.39l-3.12,1.76c-.74.42-1.9.52-2.58.22l-4.24-1.87c-.68-.3-1.57-1.03-1.99-1.63l-1.09-1.55v40.86c.5-.33,1.19-.7,1.76-.92l1.09-.44c.78-.31,1.62-1.21,1.87-2.01l.47-1.49c.25-.79.22-2-.07-2.69l-.33-.78c-.29-.68.04-1.4.73-1.59.69-.19,1.43.25,1.64.97l.13.46c.21.73.69,1.1,1.07.82.38-.27.53-1.09.32-1.81-.21-.72.1-1.84.68-2.48l3.7-4.08c.58-.64.74-1.67.34-2.29l-.72-1.13c-.39-.62-.17-1.58.49-2.13l2.9-2.42c.66-.56,1.82-1.33,2.57-1.73l2.58-1.37c.75-.4.99-.13.54.6l-1.25,2c-.46.73-.77,1.96-.7,2.73l.12,1.25c.07.77.45.79.84.03l1.99-3.86c.39-.76,1.28-1.8,1.97-2.31l3.93-2.91c.69-.51,1.8-1.39,2.46-1.95l1.41-1.2v-1.39s-.02,0-.04-.01l-10.2-2.27Z"/>
        </g>
        <g>
          <polygon class="cls-4" points="122.08 15.21 122.08 7.16 81.44 0 81.44 8.04 122.08 15.21"/>
          <path class="cls-1" d="m82.87,35.08l.8.03c.79.03,1.63-.53,1.86-1.24l.04-.13c.23-.71.96-1.37,1.62-1.46.66-.09,1.17-.37,1.14-.61-.03-.25-.57-.4-1.2-.34-.63.06-1.31-.37-1.52-.96-.21-.59,0-1.52.47-2.08l.32-.38c.47-.56.59-1.23.28-1.49-.31-.26-.93,0-1.37.58l-.67.88c-.44.58-.77,1.7-.73,2.5l.1,1.79c.04.8-.38,1.45-.94,1.46-.55,0-1.15-.52-1.33-1.17-.06-.21-.17-.4-.31-.56v2.6c.38.34.91.58,1.43.6Z"/>
          <path class="cls-1" d="m82.86,48.37c.75.41,1.67.53,2.05.27.38-.26,1.33-.22,2.11.09l2.6,1.03c.78.31,1.58-.04,1.77-.77l.04-.15c.2-.73-.29-1.48-1.09-1.67l-1.28-.3c-.8-.19-1.45-.74-1.45-1.22s-.28-.93-.63-.99c-.35-.06-.52.22-.38.62.14.4.02.78-.25.83-.28.05-.73-.34-1.01-.87-.28-.53-.9-1.55-1.39-2.26l-.38-.55c-.49-.71-1.17-1.17-1.52-1.03-.35.15-.18.81.36,1.48l.28.35c.55.67.77,1.71.49,2.32-.28.61-.79.69-1.14.18-.35-.51-.35-.93,0-.94.35,0,.63-.23.63-.48s-.54-.93-1.2-1.49l-.06-.05v4.74c.19.15.39.3.59.41l.83.45Z"/>
          <path class="cls-1" d="m97.23,47.04c0,.44.44,1.04.97,1.34.53.3.97-.1.97-.89v-.13c0-.79-.29-1.81-.65-2.26-.36-.45-.36-.92,0-1.04.36-.12.54-.46.4-.76-.14-.3-.73-.54-1.31-.52-.58.01-1.05.39-1.05.84s.15,1.23.34,1.73c.18.5.34,1.27.34,1.71Z"/>
          <path class="cls-1" d="m90.11,44.66c.58-.08,1.39.06,1.81.32.42.26,1.04.37,1.39.24.35-.12.44-.49.21-.82-.23-.33-.52-.98-.63-1.45-.12-.47-.63-.79-1.14-.72-.51.07-1.21-.05-1.56-.27-.35-.22-.89.14-1.21.81l-.02.04c-.32.67-.43,1.39-.24,1.61.19.22.81.33,1.39.24Z"/>
          <path class="cls-2" d="m96.21,70.23l-.35.29c-.56.46-1.02,1.48-1.02,2.27v.89c0,.79.27,1.58.6,1.76.33.18.78-.26.99-.99l.41-1.36c.22-.72.39-1.85.39-2.5s-.46-.82-1.02-.36Z"/>
          <path class="cls-2" d="m121.16,70.56c.09-.42-.33-1.27-.94-1.88l-1.49-1.5c-.61-.62-1.41-1.17-1.78-1.24-.37-.07-.28.47.19,1.18l1.98,2.98c.48.72,1.49,1.6,2.26,1.96l.08.04c.18.08.4.18.62.27v-.85c-.6-.17-1-.57-.92-.94Z"/>
          <path class="cls-2" d="m81.75,32.45c.17.65.77,1.18,1.33,1.17.56,0,.98-.66.94-1.46l-.1-1.79c-.04-.8.28-1.92.73-2.5l.67-.88c.44-.58,1.06-.84,1.37-.58.31.26.19.93-.28,1.49l-.32.38c-.47.56-.68,1.49-.47,2.08.21.59.89,1.02,1.52.96.62-.06,1.17.09,1.2.34.03.25-.48.52-1.14.61-.66.09-1.39.75-1.62,1.46l-.04.13c-.23.71-1.07,1.27-1.86,1.24l-.8-.03c-.51-.02-1.05-.26-1.43-.6v8.28l.06.05c.66.56,1.2,1.23,1.2,1.49s-.28.48-.63.48c-.35,0-.35.43,0,.94.35.51.86.43,1.14-.18.28-.61.06-1.65-.49-2.32l-.28-.35c-.55-.67-.71-1.34-.36-1.48.35-.14,1.03.32,1.52,1.03l.38.55c.49.71,1.11,1.73,1.39,2.26.28.53.73.92,1.01.87.28-.05.39-.43.25-.83-.14-.41.03-.68.38-.62.35.06.63.51.63.99s.65,1.03,1.45,1.22l1.28.3c.8.19,1.28.94,1.09,1.67l-.04.15c-.2.73-1,1.08-1.77.77l-2.6-1.03c-.78-.31-1.73-.35-2.11-.09-.38.26-1.31.14-2.05-.27l-.83-.45c-.21-.11-.41-.25-.59-.41v17.01l1.63,8.98c.15.8.89,1.74,1.66,2.09l2.64,1.2c.77.35,1.7.11,2.06-.53l8.15-14.18c.37-.64.02-1.37-.77-1.63l-.42-.14c-.79-.26-1.76-1.09-2.16-1.84l-2.83-5.29c-.4-.75-.53-1.36-.29-1.35.24,0,.78.63,1.19,1.38l2.3,4.21c.41.75,1.31,1.13,1.99.85l3.7-1.52c.69-.28.93-.9.55-1.39-.38-.48-1.12-.89-1.64-.91-.52-.02-1.26-.67-1.63-1.43l-.15-.31c-.37-.76-.48-1.35-.24-1.31.24.04.78.52,1.2,1.06.42.54,1.39,1.25,2.16,1.59l4.02,1.74c.77.34,1.7,1.24,2.06,2.01l1.98,4.24c.36.77,1.08.99,1.6.48l3.66-3.52c.52-.5,1.38-.35,1.9.34l.63.83c.52.69,1.07,1.91,1.21,2.71l.11.64c.14.8.68,2.02,1.2,2.72l.77,1.02c.52.69,1.11.95,1.32.57.21-.38-.16-1.13-.82-1.68-.66-.55-1.2-1.54-1.2-2.21s.45-.68,1.01-.02l.38.45c.56.66,1.27.67,1.58.02.07-.14.11-.3.14-.48v-.84c-.06-.39-.19-.78-.39-1.08-.45-.67-.45-1.4,0-1.63.1-.05.24-.11.39-.15V19.16l-.83-1.47c-.42-.75-1.34-1.15-2.04-.9l-5.22,1.86c-.7.25-1.77.79-2.36,1.21l-2.56,1.79c-.6.42-1.63.49-2.29.17-.66-.32-1.56-.11-2,.47l-1.32,1.75c-.44.58-1.43,1.11-2.2,1.16l-2.25.16c-.77.05-1.93.4-2.56.76l-2.74,1.55c-.64.36-1.5.2-1.92-.35-.42-.56-.13-1.06.64-1.13h.1c.77-.07,1.37-.52,1.34-1.01-.03-.49-.65-1.26-1.38-1.72l-3.18-2c-.72-.46-1.92-.7-2.66-.53l-1.1.24c-.74.16-1.72.76-2.18,1.32l-1.94,2.4v6.99c.14.16.25.35.31.56Zm15.86,10.32c.58-.01,1.17.22,1.31.52.14.3-.04.64-.4.76-.36.12-.36.59,0,1.04.36.45.65,1.47.65,2.26v.13c0,.79-.44,1.19-.97.89-.53-.3-.97-.9-.97-1.34s-.15-1.21-.34-1.71c-.19-.5-.34-1.28-.34-1.73s.47-.83,1.05-.84Zm-8.64.04l.02-.04c.32-.67.86-1.03,1.21-.81.35.22,1.05.35,1.56.27.51-.07,1.02.25,1.14.72.12.47.4,1.12.63,1.45.23.33.14.7-.21.82-.35.12-.97.01-1.39-.24-.42-.26-1.23-.4-1.81-.32-.58.08-1.2-.03-1.39-.24-.19-.22-.08-.94.24-1.61Z"/>
          <polygon class="cls-4" points="122.08 101.01 81.44 93.84 81.44 101.89 122.08 109.05 122.16 109.07 122.16 101.03 122.08 101.01"/>
          <polygon class="cls-4" points="122.08 15.21 122.16 15.22 122.16 7.18 122.08 7.16 122.08 15.21"/>
          <path class="cls-1" d="m122.08,71.5s.06.01.09.02v-11.35s-.06.02-.09.03c-.15.05-.29.1-.39.15-.45.23-.45.96,0,1.63.2.3.33.69.39,1.08.04.29.04.58,0,.84-.03.17-.07.34-.14.48-.31.65-1.02.64-1.58-.02l-.38-.45c-.56-.67-1.01-.66-1.01.02s.54,1.67,1.2,2.21c.66.55,1.03,1.3.82,1.68-.21.38-.8.12-1.32-.57l-.77-1.02c-.52-.69-1.06-1.91-1.2-2.72l-.11-.64c-.14-.8-.69-2.02-1.21-2.71l-.63-.83c-.52-.69-1.38-.84-1.9-.34l-3.66,3.52c-.52.5-1.24.29-1.6-.48l-1.98-4.24c-.36-.77-1.28-1.67-2.06-2.01l-4.02-1.74c-.77-.33-1.74-1.05-2.16-1.59-.42-.54-.96-1.02-1.2-1.06-.24-.04-.14.55.24,1.31l.15.31c.37.76,1.11,1.41,1.63,1.43.52.02,1.26.43,1.64.91.38.48.13,1.11-.55,1.39l-3.7,1.52c-.68.28-1.58-.1-1.99-.85l-2.3-4.21c-.41-.75-.94-1.37-1.19-1.38-.24,0-.11.6.29,1.35l2.83,5.29c.4.75,1.38,1.58,2.16,1.84l.42.14c.79.26,1.13.99.77,1.63l-8.15,14.18c-.37.64-1.29.88-2.06.53l-2.64-1.2c-.77-.35-1.51-1.29-1.66-2.09l-1.63-8.98v29.32l40.64,7.17.09.02v-28.64s-.06-.02-.09-.03c-.23-.09-.44-.18-.62-.27l-.08-.04c-.77-.36-1.78-1.24-2.26-1.96l-1.98-2.98c-.48-.72-.56-1.25-.19-1.18.37.06,1.17.62,1.78,1.24l1.49,1.5c.61.62,1.03,1.47.94,1.88-.08.37.32.77.92.94Zm-25.24,1.58l-.41,1.36c-.22.72-.66,1.16-.99.99-.33-.18-.6-.97-.6-1.76v-.89c0-.79.46-1.81,1.02-2.27l.35-.29c.56-.46,1.02-.3,1.02.36s-.18,1.78-.39,2.5Z"/>
          <path class="cls-1" d="m122.08,15.21l-40.64-7.16v16.86l1.94-2.4c.46-.57,1.44-1.16,2.18-1.32l1.1-.24c.74-.16,1.94.08,2.66.53l3.18,2c.73.46,1.35,1.23,1.38,1.72.04.49-.57.94-1.34,1h-.1c-.77.07-1.06.58-.64,1.13.42.56,1.28.72,1.92.35l2.74-1.55c.64-.36,1.79-.7,2.56-.76l2.25-.16c.77-.06,1.76-.58,2.2-1.16l1.32-1.75c.44-.58,1.34-.8,2-.47.66.32,1.69.25,2.29-.17l2.56-1.79c.6-.42,1.66-.96,2.36-1.21l5.22-1.86c.7-.25,1.62.15,2.04.9l.83,1.47.09.15v-4.09l-.09-.02Z"/>
          <path class="cls-2" d="m122.08,72.36s.06.02.09.03v-.87s-.06-.01-.09-.02v.85Z"/>
          <path class="cls-2" d="m122.08,63.06v.84c.04-.26.04-.55,0-.84Z"/>
          <path class="cls-2" d="m122.16,60.17V19.32l-.09-.15v41.04s.06-.02.09-.03Z"/>
        </g>
        <polygon class="cls-3" points="40.72 7.18 81.44 0 81.44 101.89 40.72 109.07 40.72 7.18"/>
        <polygon class="cls-3" points="122.12 7.18 162.84 0 162.84 101.89 122.12 109.07 122.12 7.18"/>
      </g>
    </g>
  </g>
</svg>