<?xml version="1.0" encoding="UTF-8"?>
<svg id="Layer_2" data-name="Layer 2" xmlns="http://www.w3.org/2000/svg" xmlns:xlink="http://www.w3.org/1999/xlink" viewBox="0 0 106.9 71.03">
  <defs>
    <style>
      .cls-1 {
        fill: #63c3e5;
      }

      .cls-1, .cls-2, .cls-3 {
        stroke-width: 0px;
      }

      .cls-2 {
        fill: #e6e6e6;
      }

      .cls-4 {
        filter: url(#drop-shadow-1);
      }

      .cls-3 {
        fill: #f2f2f2;
      }
    </style>
    <filter id="drop-shadow-1" filterUnits="userSpaceOnUse">
      <feOffset dx="3.87" dy="3.87"/>
      <feGaussianBlur result="blur" stdDeviation="0"/>
      <feFlood flood-color="#000" flood-opacity=".03"/>
      <feComposite in2="blur" operator="in"/>
      <feComposite in="SourceGraphic"/>
    </filter>
  </defs>
  <g id="OBJECTS">
    <g class="cls-4">
      <path class="cls-2" d="m35.4,29.49c-1.87,1.27-1.55,2.3.71,2.3h21.64c2.26,0,5.34-1.38,6.84-3.05L87.62,3.06c1.51-1.68.89-3.06-1.37-3.06h-3.33c-2.26,0-5.63,1.04-7.5,2.31l-40.03,27.18Z"/>
      <g>
        <path class="cls-1" d="m25.54,30.39c-2.47-.47-9.7-1.11-12.66-2.59-1.78,2.32-4.19,3.71-6.45,4.83,4.47.97,12.73.89,17.06.96,5,.09,5-2.65,2.05-3.21Z"/>
        <path class="cls-3" d="m98.86,21.97c-2.56,3.94-5.64,7.86-5.64,7.86-13.33-2.73-74.85-9.22-80.34-2.05,0,0,0,.01-.01.02,2.96,1.48,10.19,2.12,12.66,2.59,2.95.56,2.95,3.29-2.05,3.21-4.33-.07-12.59.01-17.06-.96-3.39,1.69-6.42,2.78-6.42,5.49,0,4.2,15.91,7.37,27.93,8.12,21.88,1.37,72.74-1.37,75.81-5.81,3.07-4.44,3.17-22.49,3.17-22.49,0,0-3.66-2.72-8.04,4.03Z"/>
      </g>
      <path class="cls-1" d="m43.56,31.53h2.61c.57,0,1.03.46,1.03,1.03v1.96c0,.57-.46,1.03-1.03,1.03h-2.61c-.57,0-1.03-.46-1.03-1.03v-1.96c0-.57.46-1.02,1.02-1.02Z" transform="translate(10.58 77.84) rotate(-89.04)"/>
      <path class="cls-1" d="m50.77,31.65h2.61c.57,0,1.03.46,1.03,1.03v1.96c0,.57-.46,1.03-1.03,1.03h-2.61c-.57,0-1.03-.46-1.03-1.03v-1.96c0-.57.46-1.02,1.02-1.02Z" transform="translate(17.56 85.17) rotate(-89.04)"/>
      <rect class="cls-1" x="56.96" y="31.77" width="4.66" height="4.01" rx="1.02" ry="1.02" transform="translate(24.54 92.5) rotate(-89.06)"/>
      <path class="cls-1" d="m65.2,31.89h2.61c.57,0,1.03.46,1.03,1.03v1.96c0,.57-.46,1.03-1.03,1.03h-2.61c-.57,0-1.03-.46-1.03-1.03v-1.96c0-.57.46-1.03,1.03-1.03Z" transform="translate(31.5 99.83) rotate(-89.04)"/>
      <path class="cls-1" d="m72.41,32.01h2.61c.57,0,1.03.46,1.03,1.03v1.96c0,.57-.46,1.03-1.03,1.03h-2.6c-.57,0-1.03-.46-1.03-1.03v-1.96c0-.57.46-1.03,1.03-1.03Z" transform="translate(38.45 107.15) rotate(-89.03)"/>
      <path class="cls-1" d="m79.62,32.13h2.61c.57,0,1.03.46,1.03,1.03v1.96c0,.57-.46,1.03-1.03,1.03h-2.61c-.57,0-1.03-.46-1.03-1.03v-1.96c0-.57.46-1.03,1.03-1.03Z" transform="translate(45.44 114.48) rotate(-89.05)"/>
      <path class="cls-2" d="m40.51,41.56c-.01.57-.48,1.02-1.04,1.01l-6.79-.11c-.57,0-1.02-.48-1.01-1.04l.19-11.41c0-.57.48-1.02,1.04-1.01l6.79.11c.57,0,1.02.48,1.01,1.04l-.19,11.41Z"/>
      <path class="cls-2" d="m44.03,41.54c-1.86-1.27-1.55-2.3.71-2.3h21.64c2.26,0,5.34,1.37,6.84,3.05l23.02,25.68c1.51,1.68.89,3.05-1.36,3.05h-3.33c-2.26,0-5.63-1.04-7.5-2.3l-40.03-27.18Z"/>
      <path class="cls-1" d="m34.92,31.39h2.61c.57,0,1.03.46,1.03,1.03v1.96c0,.57-.46,1.03-1.03,1.03h-2.61c-.57,0-1.03-.46-1.03-1.03v-1.96c0-.57.46-1.03,1.03-1.03Z" transform="translate(2.23 69.06) rotate(-89.04)"/>
    </g>
  </g>
</svg>