<?xml version="1.0" encoding="UTF-8"?>
<svg id="Layer_2" data-name="Layer 2" xmlns="http://www.w3.org/2000/svg" xmlns:xlink="http://www.w3.org/1999/xlink" viewBox="0 0 116.25 94.72">
  <defs>
    <style>
      .cls-1 {
        filter: url(#drop-shadow-1);
      }

      .cls-2 {
        fill: #efca4f;
      }

      .cls-2, .cls-3, .cls-4, .cls-5 {
        stroke-width: 0px;
      }

      .cls-3 {
        fill: #fff;
      }

      .cls-4, .cls-6 {
        fill: #f78346;
      }

      .cls-7 {
        clip-path: url(#clippath);
      }

      .cls-5 {
        fill: #f2534e;
      }
    </style>
    <filter id="drop-shadow-1" filterUnits="userSpaceOnUse">
      <feOffset dx="3.87" dy="3.87"/>
      <feGaussianBlur result="blur" stdDeviation="0"/>
      <feFlood flood-color="#000" flood-opacity=".1"/>
      <feComposite in2="blur" operator="in"/>
      <feComposite in="SourceGraphic"/>
    </filter>
    <clipPath id="clippath">
      <path class="cls-4" d="m11.83,12.37h92.6c6.53,0,11.83,5.3,11.83,11.83v58.69c0,6.53-5.3,11.83-11.83,11.83H11.83c-6.53,0-11.83-5.3-11.83-11.83V24.2c0-6.53,5.3-11.83,11.83-11.83Z"/>
    </clipPath>
  </defs>
  <g id="OBJECTS">
    <g class="cls-1">
      <g>
        <path class="cls-6" d="m11.83,12.37h92.6c6.53,0,11.83,5.3,11.83,11.83v58.69c0,6.53-5.3,11.83-11.83,11.83H11.83c-6.53,0-11.83-5.3-11.83-11.83V24.2c0-6.53,5.3-11.83,11.83-11.83Z"/>
        <g class="cls-7">
          <path class="cls-2" d="m21.3,57.19v40.42c0,3.71,3.01,6.72,6.72,6.72s6.71-3.01,6.71-6.72v-40.42h-13.43Z"/>
          <rect class="cls-3" x="18.95" y="42.61" width="18.14" height="20.49" rx="2.91" ry="2.91"/>
          <path class="cls-2" d="m34.73,59.36V5.93c0-3.71-3-6.72-6.71-6.72s-6.72,3.01-6.72,6.72v53.43h13.43Z"/>
          <path class="cls-3" d="m30.54,60.02c0,1.12-.91,2.02-2.02,2.02h0c-1.12,0-2.02-.91-2.02-2.02v-2.74c0-1.12.9-2.02,2.02-2.02h0c1.12,0,2.02.9,2.02,2.02v2.74Z"/>
          <path class="cls-3" d="m21.14,39.02h13.04c1.6,0,2.91,1.3,2.91,2.91v.68c0,1.6-1.3,2.9-2.9,2.9h-13.04c-1.6,0-2.91-1.3-2.91-2.91v-.68c0-1.6,1.3-2.91,2.91-2.91Z"/>
          <path class="cls-2" d="m80.33,57.19v40.42c0,3.71,3.01,6.72,6.72,6.72s6.72-3.01,6.72-6.72v-40.42h-13.43Z"/>
          <rect class="cls-3" x="77.98" y="42.61" width="18.14" height="20.49" rx="2.91" ry="2.91"/>
          <path class="cls-2" d="m93.77,59.36V5.93c0-3.71-3.01-6.72-6.72-6.72s-6.72,3.01-6.72,6.72v53.43h13.43Z"/>
          <path class="cls-3" d="m89.58,60.02c0,1.12-.91,2.02-2.02,2.02h0c-1.12,0-2.02-.91-2.02-2.02v-2.74c0-1.12.91-2.02,2.02-2.02h0c1.12,0,2.02.9,2.02,2.02v2.74Z"/>
          <path class="cls-3" d="m80.18,39.02h13.04c1.6,0,2.91,1.3,2.91,2.91v.68c0,1.6-1.3,2.9-2.9,2.9h-13.04c-1.6,0-2.91-1.3-2.91-2.91v-.68c0-1.6,1.3-2.91,2.91-2.91Z"/>
          <path class="cls-5" d="m15.05,12.37c0,8.32-6.74,15.06-15.05,15.06s-15.06-6.74-15.06-15.06S-8.32-2.68,0-2.68s15.05,6.74,15.05,15.05Z"/>
          <path class="cls-5" d="m15.05,94.72c0,8.32-6.74,15.06-15.05,15.06s-15.06-6.74-15.06-15.06,6.74-15.06,15.06-15.06,15.05,6.74,15.05,15.06Z"/>
          <path class="cls-5" d="m131.31,12.37c0,8.32-6.74,15.06-15.05,15.06s-15.06-6.74-15.06-15.06,6.74-15.05,15.06-15.05,15.05,6.74,15.05,15.05Z"/>
          <path class="cls-5" d="m131.31,94.72c0,8.32-6.74,15.06-15.05,15.06s-15.06-6.74-15.06-15.06,6.74-15.06,15.06-15.06,15.05,6.74,15.05,15.06Z"/>
          <path class="cls-3" d="m56.54,73.45c0,4.03-3.27,7.29-7.3,7.29s-7.29-3.27-7.29-7.29,3.26-7.29,7.29-7.29,7.3,3.27,7.3,7.29Z"/>
          <rect class="cls-5" x="53.41" y="56.15" width="13.68" height="20.94" transform="translate(-21.14 104.61) rotate(-72.9)"/>
        </g>
      </g>
      <path class="cls-5" d="m74.2,22.38c-1.63,0-2.96-1.32-2.96-2.96V6.7c0-.38-.09-.64-.17-.79h-25.88c-.08.15-.17.41-.17.79v12.72c0,1.63-1.32,2.96-2.96,2.96s-2.96-1.32-2.96-2.96V6.7c0-3.76,2.52-6.7,5.74-6.7h26.57c3.22,0,5.74,2.94,5.74,6.7v12.72c0,1.63-1.32,2.96-2.96,2.96Z"/>
    </g>
  </g>
</svg>