<?xml version="1.0" encoding="UTF-8"?>
<svg id="Layer_2" data-name="Layer 2" xmlns="http://www.w3.org/2000/svg" viewBox="0 0 298.99 344.5">
  <defs>
    <style>
      .cls-1 {
        fill: #e3b46d;
      }

      .cls-1, .cls-2, .cls-3, .cls-4, .cls-5, .cls-6, .cls-7, .cls-8, .cls-9, .cls-10, .cls-11, .cls-12, .cls-13, .cls-14, .cls-15, .cls-16, .cls-17, .cls-18, .cls-19, .cls-20, .cls-21, .cls-22, .cls-23 {
        stroke-width: 0px;
      }

      .cls-2 {
        opacity: .4;
      }

      .cls-2, .cls-11, .cls-21 {
        fill: #fff;
      }

      .cls-3 {
        fill: #668bab;
      }

      .cls-4 {
        fill: #f26b46;
      }

      .cls-5 {
        fill: #139480;
      }

      .cls-6 {
        fill: #719abd;
      }

      .cls-7 {
        fill: #e5e5e5;
      }

      .cls-24, .cls-21 {
        opacity: .2;
      }

      .cls-8 {
        fill: #527fa6;
      }

      .cls-25 {
        stroke-miterlimit: 10;
      }

      .cls-25, .cls-26 {
        stroke: #476d8f;
      }

      .cls-25, .cls-26, .cls-27, .cls-28 {
        fill: none;
      }

      .cls-9 {
        fill: #17b098;
      }

      .cls-26, .cls-27, .cls-28 {
        stroke-linecap: round;
        stroke-linejoin: round;
      }

      .cls-10 {
        fill: #fc8d6f;
      }

      .cls-12 {
        fill: #90b4d4;
      }

      .cls-13 {
        fill: #ed5f39;
      }

      .cls-27 {
        stroke: #90b4d4;
        stroke-width: 6px;
      }

      .cls-14 {
        fill: #057866;
      }

      .cls-15 {
        fill: #ffc95e;
      }

      .cls-16 {
        fill: #f2c683;
      }

      .cls-17 {
        fill: #f1f1f1;
      }

      .cls-18 {
        fill: #f59378;
      }

      .cls-19 {
        fill: #ffdeab;
      }

      .cls-20 {
        fill: #476d8f;
      }

      .cls-28 {
        stroke: #719abd;
        stroke-width: 3px;
      }

      .cls-22 {
        fill: #f57856;
      }

      .cls-23 {
        fill: #345069;
      }
    </style>
  </defs>
  <g id="OBJECTS">
    <g>
      <g>
        <g>
          <polygon class="cls-17" points="201.35 30.73 199.61 29.72 251.09 0 252.83 1.01 201.35 30.73"/>
          <polygon class="cls-11" points="252.83 1.01 264.61 8.54 252.91 29.63 201.43 59.34 201.35 30.73 252.83 1.01"/>
        </g>
        <g>
          <polygon class="cls-17" points="145.79 1.01 147.53 0 199 29.72 197.26 30.73 145.79 1.01"/>
          <polygon class="cls-7" points="197.26 30.73 197.18 59.34 145.71 29.62 134 8.54 145.79 1.01 197.26 30.73"/>
        </g>
        <g>
          <line class="cls-27" x1="199.35" y1="13.18" x2="199.35" y2="200.86"/>
          <circle class="cls-6" cx="199.69" cy="11.89" r="6.75"/>
          <circle class="cls-8" cx="199.69" cy="4.14" r="3.34"/>
        </g>
        <g>
          <polygon class="cls-3" points="168.19 23.05 177.04 42.32 159.26 32.06 168.19 23.05"/>
          <polygon class="cls-6" points="173.82 40.46 150.5 26.99 157.97 19.45 158.33 19.1 162.22 15.18 165.68 22.72 166.21 23.87 173.82 40.46"/>
          <polygon class="cls-11" points="165.68 22.72 164.83 22.58 163.35 23.43 161.17 20.47 159.6 21.26 158.33 19.1 162.22 15.18 165.68 22.72"/>
        </g>
        <g>
          <path class="cls-12" d="m246.94,12.06c.68-.39,1.23-.08,1.23.7,0,.78-.55,1.73-1.23,2.12-1.16.67-1.69,1.45-2.41,2.51-.85,1.25-1.91,2.82-3.92,3.97-2,1.16-3.07.82-3.92.55-.73-.23-1.25-.4-2.41.27-1.16.67-1.68,1.44-2.41,2.51-.86,1.25-1.91,2.82-3.92,3.97-2,1.16-3.07.82-3.92.55-.73-.23-1.25-.4-2.41.27-.68.39-1.23.08-1.23-.7,0-.78.54-1.73,1.23-2.12,2-1.16,3.07-.82,3.92-.55.73.23,1.25.39,2.41-.28,1.16-.67,1.68-1.44,2.41-2.5.85-1.26,1.91-2.82,3.92-3.97,2-1.16,3.06-.82,3.92-.55.73.23,1.25.39,2.41-.28,1.16-.67,1.68-1.44,2.41-2.5.86-1.26,1.91-2.82,3.92-3.98Z"/>
          <path class="cls-12" d="m247.81,19.36c.68-.39,1.23-.07,1.23.7,0,.78-.55,1.74-1.23,2.13-1.16.67-1.69,1.44-2.41,2.51-.85,1.26-1.91,2.82-3.92,3.97-2,1.16-3.07.82-3.92.55-.73-.23-1.25-.39-2.41.28-1.16.67-1.68,1.44-2.41,2.5-.86,1.26-1.91,2.82-3.92,3.97-2,1.16-3.07.82-3.92.55-.73-.23-1.25-.39-2.41.28-.68.39-1.23.07-1.23-.71,0-.78.54-1.73,1.23-2.12,2-1.16,3.07-.82,3.92-.55.73.23,1.25.4,2.41-.27,1.16-.67,1.68-1.44,2.41-2.51.85-1.26,1.91-2.82,3.92-3.97,2-1.16,3.06-.82,3.92-.55.73.23,1.25.4,2.41-.27,1.16-.67,1.68-1.44,2.41-2.51.86-1.26,1.91-2.82,3.92-3.98Z"/>
        </g>
        <g>
          <polygon class="cls-11" points="251.17 62.6 252.91 61.59 264.61 82.67 262.87 83.68 251.17 62.6"/>
          <polygon class="cls-17" points="199.69 32.88 201.43 31.87 252.91 61.59 251.17 62.6 199.69 32.88"/>
          <polygon class="cls-7" points="251.17 62.6 262.87 83.68 251.09 91.2 199.61 61.49 199.69 32.88 251.17 62.6"/>
        </g>
        <g>
          <polygon class="cls-7" points="134.87 83.63 133.13 82.62 144.83 61.54 146.57 62.55 134.87 83.63"/>
          <polygon class="cls-17" points="146.57 62.55 144.83 61.54 196.31 31.81 198.05 32.82 146.57 62.55"/>
          <polygon class="cls-11" points="198.05 32.82 198.13 61.44 146.65 91.16 134.87 83.63 146.57 62.55 198.05 32.82"/>
        </g>
        <g>
          <path class="cls-15" d="m168.57,55.88c3.1-1.79,5.61-.35,5.62,3.21.01,3.56-2.49,7.89-5.59,9.68-3.1,1.79-5.61.35-5.62-3.2-.01-3.56,2.49-7.89,5.59-9.68Z"/>
          <path class="cls-12" d="m175.88,58.77c1.86-1.07,3.58-1.39,5-1.04,1.22-1.54,2.63-2.84,4.15-3.72,4.52-2.61,8.2-.51,8.21,4.67l-8.7,5.02-7.66,4.42-3.28,1.89-6.33,3.66-6.29,3.63c-.01-4,2.81-8.88,6.29-10.89.81-.47,1.58-.73,2.3-.82,1.57-2.86,3.81-5.38,6.31-6.82Z"/>
        </g>
        <g>
          <path class="cls-13" d="m229.85,59.44l1.15,2.45c-4.5,1.27-6.54,9.32-6.81,10.45.05,1.14.01,1.81,0,1.9l-1.92-1.26c0-.06.32-5.79-2.5-12.68l1.64-.23c1.02,2.5,1.68,4.84,2.09,6.87,1.16-2.95,3.18-6.6,6.35-7.5Z"/>
          <path class="cls-5" d="m220.2,56.22c1.52-1.22,5,.53,5.18.62-.16.05-3.18,1.02-4.16,4.75l-.09.03c-3.57-.38-5.51,2.33-5.61,2.47-.01-.22-.25-4.36,1.34-5.45.46-.32,1.02-.2,1.58.13.2.12.41.26.61.43-1.08-1.06-2.52-2.31-4.09-3.21-.46-.26-.93-.5-1.4-.69.05-.12,1.1-2.4,2.96-1.32.2.12.42.28.64.49,1.08,1.02,2.01,2.64,2.68,4.04-.22-.94-.22-1.83.35-2.29Z"/>
          <path class="cls-5" d="m229.12,52.01c.17.12,3.49,2.48,3.42,5.16-.03,1.05-.47,1.87-.99,2.49.3,0,.62.07.98.28.21.12.42.28.65.5,2.25,2.14,3.72,6.63,3.8,6.86-.09-.12-1.89-2.36-4.41-4.27.51.54.95,1.22,1.18,2.08.81,3.02-.75,5.72-.83,5.86l-3.37-9.76c-.14-.27-2.89-5.38-6.14-8.18.07-.04,1.46-.85,2.96.02.45.26.91.68,1.33,1.33,1.43,2.2,1.86,5.36,1.98,6.6l.08-.13c.18-.91.74-4.49-.64-8.83Z"/>
        </g>
      </g>
      <g>
        <polygon class="cls-11" points="298.99 253.46 142.33 344.5 40.96 285.98 197.62 194.93 298.99 253.46"/>
        <polygon class="cls-12" points="287.68 253.46 142.29 337.95 52.28 285.98 197.66 201.49 287.68 253.46"/>
        <g>
          <path class="cls-19" d="m153.6,309.7c1.73,1,2.48,3.06,2.91,4.74.72,2.86,2.13,2.05,4.59,5.09.48.6.97,1.01,1.45,1.28.73.42,1.44.54,2.05.61.61.06,1.12.07,1.45.26.22.12.36.33.41.68.25,1.77-5.19,1.09-7.78.41-.87-.23-1.4-.47-1.84-.73-.18-.1-.34-.21-.51-.31-.17-.11-.34-.21-.53-.32-.59-.34-1.37-.7-2.79-1.09-1.11-.3-1.8-.55-2.22-.78-.9-.52-.47-1.01-.15-1.94.13-.38-.1-.67-.52-.92-.45-.26-1.13-.47-1.84-.7-.7-.23-1.43-.48-2.01-.81-.23-.13-.43-.27-.59-.43-1.42-1.36,2.36-4.87,2.56-5.05,2.43-.85,4.15-.67,5.37.04Z"/>
          <path class="cls-19" d="m142.63,251.24c1.21.7,1.05,3.64,1.07,6.26.01,3,.95,1.91-1.17,2.6-2.12.68-4.72-1.09-8.02-1.37-.76-.06-1.27-.21-1.61-.41-1.12-.65-.33-1.72-.29-1.78.06-.23,1.15-4.51,2.32-5.74,1.17-1.23,5.19.28,7.08.27.24,0,.44.05.62.16Z"/>
          <path class="cls-19" d="m146.68,244.56c.23.13.36.36.34.71-.13,2.38.38,2.4-4.08,3.9-1.49.5-2.28.5-2.67.27-.79-.45-.02-1.73.02-1.8.2-1.38,5.04-3.86,6.39-3.09Z"/>
          <path class="cls-19" d="m99.76,299.26c.71.41.33,1.8-1.33,3.69-1.9,2.16,2.88,3.56,1,4.38-.63.27-1.18.17-1.74-.16-1.12-.65-2.28-2.16-4.17-3.26-2.83-1.64,1.57-4,1.8-4.13.14-.04,2.89-.79,4.07-.65.15.02.28.06.38.12Z"/>
          <path class="cls-19" d="m264.43,252.62c3.22,1.86-.57,3.89-1.69,7.2-1.16,3.41-2.09,5.6-4,5.31-.19-.03-.37-.09-.53-.19-1.47-.85-1.9-4.18-2.55-6.76-.73-2.87,2.05-4.36,2.2-4.44.12-.16,2.47-3.2,6.25-1.29.11.06.22.11.32.17Z"/>
          <path class="cls-19" d="m197.55,215.38c.79.46,1.06,1.34,2.01,3.35,1.42,3.02,5.93,4.22,3.78,6.57-.91.99-1.81.9-2.77.34-.6-.34-1.22-.86-1.89-1.41-.67-.55-1.39-1.13-2.18-1.59-.15-.09-.3-.17-.46-.25-.24-.12-.47-.24-.68-.36-2.47-1.43-2.88-2.93-2.9-3.01-1.71-2.2.96-4.4,3.37-4.1.8.1,1.32.22,1.72.45Z"/>
          <path class="cls-19" d="m246.27,245.71c3.95,2.28,1.27,5.94,2.29,8.37,1.19,2.87-3.75,4.37-.91,7.65,2.84,3.27-1.37,7.37-3.26,7.1-.22-.03-.43-.11-.63-.22-1.47-.85-2.38-3.75-5.29-5.92-3.12-2.31-2.9-4.14-3.84-4.69-.06-.03-.12-.06-.19-.09-1.18-.41-7.78-.13-8.96,0-1.18.14-6.37-1.5-10.85-1.91-4.48-.41-6.59,1.64-12.67.79-2.61-.37-4.08-.79-4.96-1.3-1.17-.67-1.3-1.5-1.68-2.54-.67-1.82-.06-4.59.88-5.95.15-.17,3.04-3.42,3.23-6.85.18-3.43,3.31-1.89,5.16-3,1.86-1.11-1.17-3.95-2.36-5.72-1.19-1.77-.97-4.92,4.7-2.73.91.35,1.59.67,2.1.97.94.54,1.36,1.01,1.74,1.45.38.44.73.87,1.52,1.33.69.4,1.71.82,3.39,1.3,6.61,1.91,10.62,2.87,14.56,5.15,1.21.7,2.2,1.32,3.21,1.91,2.28,1.32,4.69,2.45,10.06,3.85,1.16.3,2.06.66,2.75,1.06Z"/>
          <path class="cls-19" d="m161.98,245.42c.28.16.54.34.82.52.27.18.55.37.86.55.22.13.45.25.71.37.31.14.59.29.85.44,1.72.99,2.48,2.17,4.12,4.06,1.9,2.19.96,3.28,1.08,4.78.13,1.5,3.2,2.6,2.51,5.74-.3,1.37.69,2.3,1.97,3.03.54.31,1.14.59,1.71.86.57.27,1.12.52,1.56.77.44.26.78.52.92.8.11.24.26.4.44.51.96.55,2.83-.51,5.22-.51.83,0,1.51.2,2.05.51,1.31.75,1.75,2.17,1.26,3.04-.7,1.23-2.59.14-6.2.22-3.61.09-5.32,2.64-6.34,3.69-1.01,1.05-1.08,4.28-.11,7.28.29.91.84,1.52,1.58,1.95,1.69.98,4.37.99,7.16,1.47,4.01.68,6.11-3.55,7.52-4.37,1.41-.82,5.19.27,6.14.55.94.27,3.07,1.23,6.6,1.91,3.54.69,4-1.78,7.3-2.32,1.29-.21,2.08-.09,2.7.27.96.56,1.53,1.68,2.97,3.01,2.37,2.19-.92,3.01-3.76,2.19-2.83-.82-7.07.87-7.29.95-.42.19-8.47,3.83-12.93,5.05-4.48,1.23-2.11,1.5-6.36,2.05-4.24.55-9.88,2.46-12.46,3.96-2.59,1.5-5.18,1.91-8.94,1.64-3.78-.27-7.08-.27-9.91-.55-2.83-.28-3.55-2.32-6.61-1.91-3.07.41-2.59-.41-3.77.28-1.17.68.25,1.77-1.16,3.96-.53.83-.32,1.3.25,1.63.94.54,2.84.69,4.01,1.37,1.89,1.09-4.71,1.37-7.54,1.09-.26-.02-.48-.1-.67-.21-1.94-1.12-.95-6.25-2.67-7.98-1.89-1.91.68-3.96-.03-5.19-.19-.33-.56-.63-.99-.88-1.16-.67-2.71-1.01-2.79-1.03-.27.09-5.41,1.77-6.82,2.04-1.41.27-2.6-.13-4.01-.95-1.42-.82-4.95-.41-6.59,1.36-1.64,1.78-7.68,3.2-7.99,3.28l-8.97-1.36c.09-.26,1.85-5.19-.3-9.69-2.14-4.5.32-5.67.45-5.73l6.11-3.55-.49-3.83c.09-.14,1.87-2.73,4.38-6.99,2.52-4.26,2.87-1.33,6.42-3.67,3.54-2.33,3.97-2.03,10.1-1.49,6.13.55,5.9,2.05,10.86,2.73,4.95.69,1.65.68,8.5,2.46,1.37.35,2.23.69,2.77,1,.81.47.87.87.77,1.18-.11.3-.39.51-.27.57.08.04.33.03.93-.06,3-.44,4.52-4.74,5.22-5.15.61-.35,1.03-3.48-1.67-5.03-.42-.24-.91-.44-1.49-.59-.52-.14-.96-.32-1.33-.53-2.74-1.58-2-5.06-2.42-6.26-.48-1.36,2.59-1.78,3.52-3.96.93-2.18,1.64-.95,5.88-1.78,2.47-.48,3.66-.12,4.69.48Z"/>
        </g>
        <g>
          <line class="cls-26" x1="52.28" y1="285.98" x2="197.66" y2="201.49"/>
          <line class="cls-25" x1="68.42" y1="295.28" x2="213.8" y2="210.79"/>
          <line class="cls-26" x1="87" y1="306.02" x2="232.34" y2="221.56"/>
          <line class="cls-25" x1="104.87" y1="316.29" x2="250.26" y2="231.8"/>
          <line class="cls-25" x1="122.35" y1="326.36" x2="267.73" y2="241.87"/>
          <line class="cls-26" x1="142.29" y1="337.95" x2="287.68" y2="253.46"/>
          <line class="cls-26" x1="52.28" y1="285.98" x2="142.29" y2="337.95"/>
          <line class="cls-25" x1="71.92" y1="274.55" x2="161.94" y2="326.53"/>
          <line class="cls-25" x1="93.55" y1="262.11" x2="183.57" y2="314.09"/>
          <line class="cls-25" x1="115.02" y1="249.55" x2="205.04" y2="301.52"/>
          <line class="cls-25" x1="136.03" y1="237.6" x2="226.04" y2="289.57"/>
          <line class="cls-25" x1="158" y1="224.46" x2="248.02" y2="276.43"/>
          <line class="cls-25" x1="179.76" y1="211.75" x2="269.77" y2="263.72"/>
          <line class="cls-26" x1="197.91" y1="201.69" x2="287.42" y2="253.37"/>
        </g>
      </g>
      <g>
        <g>
          <path class="cls-10" d="m208.07,155.09l-.24,83.53-34.55,20.08.24-83.54c.02-4.76-3.33-10.56-7.47-12.96l-18.01-10.4h0l-7.82-4.53-56.3-32.5-7.83-4.52-11.5-6.64c-2.08-1.2-3.98-1.32-5.34-.52l34.55-20.07c1.36-.79,3.25-.68,5.34.52l11.5,6.64,7.82,4.52,56.3,32.5,7.83,4.52,18.01,10.4c4.15,2.39,7.5,8.2,7.48,12.96Z"/>
          <path class="cls-22" d="m173.53,175.17l-.24,83.54-25.36-14.65-7.71-4.45-56.42-32.57-7.71-4.45-19.27-11.13.24-83.54c.02-4.76,3.38-6.69,7.53-4.3l11.5,6.64,7.71,4.45,56.42,32.58,7.71,4.45,18.13,10.46c4.14,2.39,7.49,8.19,7.47,12.96Z"/>
          <path class="cls-13" d="m188.17,149.34l-101.46-58.58c-2.09-1.2-3.97-1.32-5.34-.52l-5.76,3.35c1.36-.79,3.25-.68,5.34.52l101.46,58.58c4.15,2.39,7.5,8.2,7.49,12.97l-.24,83.53,5.76-3.35.24-83.53c.01-4.76-3.34-10.57-7.49-12.97Z"/>
        </g>
        <g>
          <path class="cls-6" d="m133.68,162.18c6.3,3.63,11.39,10.36,11.37,15.02-.01,4.66-5.12,5.49-11.42,1.85-6.3-3.63-11.39-10.36-11.37-15.01.01-4.66,5.12-5.49,11.42-1.86Z"/>
          <path class="cls-20" d="m133.67,164.62c4.47,2.58,8.09,7.36,8.08,10.67,0,3.31-3.64,3.9-8.12,1.32-4.47-2.58-8.09-7.36-8.08-10.67,0-3.31,3.64-3.9,8.11-1.32Z"/>
        </g>
        <g>
          <polygon class="cls-6" points="137.73 189.44 145.47 210.17 127 211.2 119.26 190.47 137.73 189.44"/>
          <polygon class="cls-12" points="136.81 192.53 142.33 207.3 127.92 208.1 122.41 193.33 136.81 192.53"/>
        </g>
        <g>
          <polygon class="cls-5" points="85.65 131.85 105.34 151.72 99.64 165.81 79.94 145.95 85.65 131.85"/>
          <polygon class="cls-9" points="87 136.06 102.35 151.56 98.29 161.6 82.93 146.11 87 136.06"/>
        </g>
        <g>
          <polygon class="cls-1" points="76.08 202.58 83.8 207.03 83.8 170.3 76.08 165.68 76.08 202.58"/>
          <polygon class="cls-16" points="76.08 110.26 76.08 165.68 83.8 170.3 83.8 114.72 76.08 110.26"/>
          <polygon class="cls-19" points="118.45 94.71 83.91 114.78 76.08 110.26 110.63 90.19 118.45 94.71"/>
          <path class="cls-22" d="m79.94,159.88c.86.49,1.55,1.69,1.55,2.68,0,.98-.7,1.38-1.56.89-.85-.49-1.55-1.69-1.54-2.68,0-.98.7-1.38,1.55-.89Z"/>
          <path class="cls-22" d="m79.94,152.47c.86.49,1.55,1.69,1.55,2.68,0,.98-.7,1.38-1.56.89-.85-.49-1.55-1.69-1.54-2.68,0-.98.7-1.38,1.55-.89Z"/>
          <path class="cls-22" d="m79.94,145.06c.86.49,1.55,1.69,1.55,2.68,0,.98-.7,1.38-1.56.89-.85-.49-1.55-1.69-1.54-2.68,0-.98.7-1.38,1.55-.89Z"/>
          <path class="cls-16" d="m72.04,189.15l-4.18-6.05c7.47-5.17,8.4-15.24,8.41-15.34l7.33.62c-.05.55-1.26,13.66-11.55,20.78Z"/>
          <polygon class="cls-13" points="85.16 168.97 85.15 173.13 74.72 167.11 74.73 162.95 85.16 168.97"/>
        </g>
        <g>
          <polygon class="cls-8" points="115.93 100.83 115.92 103.34 101.87 111.51 101.87 109 115.93 100.83"/>
          <polygon class="cls-20" points="101.87 109 101.87 111.51 95.76 107.98 95.77 105.48 101.87 109"/>
          <polygon class="cls-6" points="115.93 100.83 101.87 109 95.77 105.48 109.83 97.31 115.93 100.83"/>
        </g>
        <g>
          <path class="cls-5" d="m113.28,100.84c-.35.2-.56.63-.57,1.24l-.03,10.92,3.77-2.19.03-10.92c0-.61.22-1.04.57-1.24l-3.77,2.19Z"/>
          <path class="cls-5" d="m144.07,105.72l-25.62-14.79c-2.43-1.4-4.64-1.53-6.24-.6l-3.77,2.19c1.6-.93,3.81-.8,6.24.6l25.62,14.79c4.84,2.8,8.76,9.59,8.74,15.15l-.03,10.92,3.77-2.19.03-10.92c.02-5.56-3.9-12.35-8.74-15.15Z"/>
          <path class="cls-14" d="m140.3,107.91c4.84,2.8,8.76,9.59,8.74,15.15l-.03,10.92-6.84-3.95.03-10.92c0-1.23-.86-2.73-1.93-3.34l-25.62-14.79c-1.07-.62-1.94-.12-1.94,1.11l-.03,10.92-6.84-3.95.03-10.92c.02-5.56,3.97-7.81,8.8-5.02l25.62,14.79Z"/>
        </g>
        <g>
          <polygon class="cls-8" points="165.15 130.24 165.14 132.75 151.08 140.91 151.09 138.41 165.15 130.24"/>
          <polygon class="cls-20" points="151.09 138.41 151.08 140.91 144.98 137.39 144.99 134.89 151.09 138.41"/>
          <polygon class="cls-6" points="165.15 130.24 151.09 138.41 144.99 134.89 159.04 126.72 165.15 130.24"/>
        </g>
        <g>
          <path class="cls-19" d="m100.6,159.2c.94.55,1.58,3.44,2.45,4.21.06.06.13.11.21.15.4.23.9.24,1.4.25.5,0,1,0,1.4.24.13.07.24.17.34.29.8,1,.25,3.24.9,4.36.65,1.12,2.87,1.79,3.34,2.97.45,1.17-1.12,2.16-.89,3.34.23,1.14,2.43,3.15,2.42,4.23,0,1.08-2.21.56-2.44,1.42-.24.9,1.32,3.7.87,4.35-.47.65-2.69-1.25-3.34-.88s-.12,3.23-.92,3.31c-.1,0-.22-.03-.35-.1-.4-.23-.89-.8-1.39-1.37-.5-.57-1.01-1.15-1.4-1.38-.07-.04-.14-.07-.2-.09-.87-.24-1.53,1.91-2.47,1.37-.94-.55-1.58-3.44-2.45-4.21-.06-.06-.13-.1-.2-.14-.4-.23-.91-.24-1.41-.25-.5,0-1-.01-1.39-.24-.13-.07-.24-.17-.34-.3-.8-1-.26-3.24-.9-4.36-.65-1.12-2.87-1.79-3.33-2.98-.46-1.17,1.12-2.16.88-3.34-.23-1.14-2.42-3.15-2.42-4.23,0-1.08,2.2-.56,2.44-1.43.24-.9-1.32-3.7-.86-4.35.47-.65,2.69,1.25,3.34.88.65-.37.12-3.24.93-3.31.1,0,.21.03.34.1.39.23.89.8,1.39,1.37.5.57,1,1.15,1.4,1.38.07.04.14.07.21.09.87.24,1.53-1.91,2.47-1.37Z"/>
          <path class="cls-10" d="m100.58,164.24c3.99,2.3,7.21,7.88,7.2,12.47s-3.26,6.43-7.24,4.12c-3.99-2.3-7.21-7.88-7.19-12.46.01-4.58,3.25-6.43,7.24-4.13Z"/>
        </g>
        <g>
          <polygon class="cls-1" points="140.21 199.6 140.21 239.6 147.92 244.06 147.92 204.22 140.21 199.6"/>
          <polygon class="cls-16" points="147.92 151.75 140.21 147.29 140.21 199.6 147.92 204.22 147.92 151.75"/>
          <polygon class="cls-19" points="182.58 131.73 148.04 151.81 148.03 151.81 140.21 147.29 174.75 127.21 182.58 131.73"/>
          <path class="cls-22" d="m144.07,193.08c.86.49,1.55,1.69,1.55,2.68,0,.98-.7,1.38-1.56.89-.85-.49-1.55-1.69-1.54-2.68,0-.98.7-1.38,1.55-.89Z"/>
          <path class="cls-22" d="m144.07,185.66c.86.49,1.55,1.69,1.55,2.68,0,.98-.7,1.38-1.56.89-.85-.49-1.55-1.69-1.54-2.68,0-.98.7-1.38,1.55-.89Z"/>
          <path class="cls-22" d="m144.07,178.25c.86.49,1.55,1.69,1.55,2.68,0,.98-.7,1.38-1.56.89-.85-.49-1.55-1.69-1.54-2.68,0-.98.7-1.38,1.55-.89Z"/>
          <path class="cls-16" d="m136.73,223l-4.36-5.92c7.31-5.39,7.93-15.49,7.94-15.59l7.34.39c-.03.56-.84,13.69-10.92,21.12Z"/>
          <polygon class="cls-13" points="149.29 202.87 149.28 207.03 138.85 201.01 138.86 196.85 149.29 202.87"/>
        </g>
      </g>
      <g>
        <path class="cls-18" d="m110.08,265.99c-4.33-2.5-7.82-8.55-7.81-13.52,0-2.47.88-4.21,2.29-5.03l-4.65,2.7c-1.41.82-2.28,2.56-2.29,5.03-.01,4.97,3.48,11.03,7.81,13.52,2.18,1.26,4.15,1.37,5.57.55l4.65-2.7c-1.42.83-3.4.71-5.57-.55Z"/>
        <path class="cls-18" d="m110.15,239.49c-4.23-2.44-8.07-2.67-10.83-1.06l-4.65,2.7c2.77-1.61,6.6-1.38,10.83,1.06,8.41,4.86,15.21,16.63,15.18,26.3-.03,9.66-14.55,20.7-15.32,21.28l4.65-2.7c.76-.58,15.29-11.61,15.32-21.28.03-9.67-6.77-21.44-15.18-26.3Z"/>
        <path class="cls-4" d="m105.5,242.19c8.41,4.86,15.21,16.63,15.18,26.3-.03,9.66-14.55,20.7-15.32,21.28-.76-1.46-15.17-29.2-15.14-38.86.03-9.67,6.87-13.57,15.28-8.71Zm-.08,26.5c4.33,2.5,7.84.49,7.86-4.48.01-4.97-3.48-11.03-7.81-13.53-4.33-2.5-7.84-.49-7.86,4.48-.01,4.97,3.48,11.03,7.81,13.52"/>
      </g>
      <g>
        <path class="cls-18" d="m247.58,240.14c-4.33-2.5-7.82-8.55-7.81-13.52,0-2.47.88-4.21,2.29-5.03l-4.65,2.7c-1.41.82-2.28,2.56-2.29,5.03-.01,4.97,3.48,11.03,7.81,13.52,2.18,1.26,4.15,1.37,5.57.55l4.65-2.7c-1.42.83-3.4.71-5.57-.55Z"/>
        <path class="cls-18" d="m247.65,213.64c-4.23-2.44-8.07-2.67-10.83-1.06l-4.65,2.7c2.77-1.61,6.6-1.38,10.83,1.06,8.41,4.86,15.21,16.63,15.18,26.3-.03,9.66-14.55,20.7-15.32,21.28l4.65-2.7c.76-.58,15.29-11.61,15.32-21.28.03-9.67-6.77-21.44-15.18-26.3Z"/>
        <path class="cls-4" d="m243,216.34c8.41,4.86,15.21,16.63,15.18,26.3-.03,9.66-14.55,20.7-15.32,21.28-.76-1.46-15.17-29.2-15.14-38.86.03-9.67,6.87-13.57,15.28-8.71Zm-.08,26.5c4.33,2.5,7.84.49,7.86-4.48.01-4.98-3.48-11.03-7.81-13.53-4.33-2.5-7.84-.49-7.86,4.48-.01,4.97,3.48,11.03,7.81,13.52"/>
      </g>
      <g>
        <path class="cls-9" d="m255.4,175.72l-.05,16.3c0,2.51-1.66,5.02-4.96,6.94-6.65,3.86-17.45,3.86-24.14,0-3.36-1.94-5.04-4.49-5.04-7.04l.05-16.3c0,2.55,1.67,5.09,5.04,7.04,6.68,3.86,17.49,3.86,24.14,0,3.3-1.92,4.95-4.43,4.96-6.94Z"/>
        <path class="cls-9" d="m250.34,168.68c6.68,3.86,6.72,10.12.08,13.98-6.65,3.86-17.45,3.86-24.14,0-6.68-3.86-6.72-10.12-.07-13.98,6.64-3.86,17.45-3.86,24.13,0Z"/>
        <path class="cls-2" d="m255.38,191.99v4.08c-.02,2.51-1.67,5.02-4.97,6.94-6.65,3.86-17.45,3.86-24.14,0-3.37-1.94-5.05-4.49-5.04-7.04v-4.08c0,2.55,1.69,5.1,5.05,7.04,6.68,3.86,17.49,3.86,24.14,0,3.3-1.92,4.95-4.43,4.96-6.94Z"/>
        <path class="cls-21" d="m255.38,143.59c.23-2.7-1.43-5.45-5-7.52-6.68-3.86-17.49-3.86-24.13,0-3.3,1.92-4.95,4.43-4.96,6.95h0l-.09,32.61c0,2.55,1.67,5.09,5.03,7.04,6.69,3.86,17.5,3.86,24.14,0,3.3-1.92,4.95-4.43,4.96-6.94l.09-32.61c0,.16-.03.31-.04.47Z"/>
        <polyline class="cls-28" points="234.71 178.06 250 127.31 267.07 117.31"/>
        <g class="cls-24">
          <path class="cls-11" d="m255.42,143.12l-.09,32.61c0,2.51-1.66,5.02-4.96,6.94-6.64,3.86-17.45,3.86-24.14,0-3.36-1.94-5.04-4.49-5.03-7.04l.09-32.61c0,2.55,1.67,5.09,5.03,7.04,6.69,3.86,17.5,3.86,24.14,0,3.3-1.92,4.95-4.43,4.96-6.94Z"/>
        </g>
      </g>
      <g>
        <polygon class="cls-23" points="93.31 230.39 93.3 232.84 53.13 256.18 53.14 253.74 93.31 230.39"/>
        <polygon class="cls-23" points="53.14 253.74 53.13 256.18 0 225.51 0 223.06 53.14 253.74"/>
        <polygon class="cls-20" points="93.31 230.39 53.14 253.74 0 223.06 40.18 199.72 93.31 230.39"/>
        <path class="cls-6" d="m58.29,216.26c7.67,4.43,7.71,11.63.09,16.06-7.62,4.43-20.05,4.43-27.72,0-7.67-4.43-7.71-11.63-.1-16.06,7.62-4.43,20.06-4.42,27.73,0Zm-11.01,13.71c4.15,1.45,7.67,1.87,8.97,1.11,1.29-.75.56-2.79-1.95-5.18-1.47.44-2.84,1.03-4.05,1.73-1.21.7-2.2,1.49-2.97,2.34m-14.59-12.49c-1.29.75-.56,2.78,1.93,5.17,1.46-.45,2.82-1.02,4.03-1.73,1.21-.7,2.19-1.49,2.97-2.34-4.13-1.44-7.63-1.85-8.92-1.1m17.03,2.51l5.33-3.1c-2.53-1.22-5.53-1.93-8.62-2.15-.09,1.09-.46,2.16-1.08,3.17,1.45.6,2.92,1.29,4.37,2.08m-17.97,10.44l5.33-3.1c-1.37-.84-2.57-1.69-3.61-2.53-1.75.36-3.59.58-5.46.64.39,1.79,1.63,3.53,3.74,4.99m25.42-12.31l-5.33,3.1c1.36.84,2.55,1.68,3.59,2.51,1.76-.36,3.59-.58,5.48-.64-.39-1.78-1.63-3.51-3.74-4.97m-23.3,13.54c2.52,1.21,5.51,1.92,8.58,2.15.1-1.1.46-2.17,1.08-3.18-1.43-.59-2.89-1.28-4.33-2.06l-5.33,3.1m5.31-5.55l8.42-4.89c-1.17-.63-2.34-1.18-3.5-1.67-.88.94-1.99,1.82-3.34,2.6-1.34.78-2.86,1.42-4.49,1.94.85.67,1.82,1.35,2.91,2.03m10.54-3.66l-8.42,4.89c1.16.62,2.32,1.17,3.46,1.66.88-.94,1.99-1.82,3.33-2.6,1.34-.78,2.87-1.42,4.51-1.94-.84-.66-1.8-1.33-2.89-2.01m-4.29,11.42c2.13-.07,4.24-.38,6.19-.91-1.7-.25-3.57-.7-5.51-1.36-.38.73-.61,1.49-.69,2.27m14.01-5.46c.92-1.14,1.44-2.35,1.56-3.58-1.34.04-2.65.18-3.91.4,1.13,1.12,1.93,2.19,2.35,3.18m-16.03-13.71c-2.12.07-4.2.37-6.15.91,1.69.24,3.54.69,5.46,1.34.38-.73.61-1.48.69-2.25m-13.97,5.46c-.92,1.13-1.44,2.34-1.55,3.56,1.33-.05,2.63-.18,3.88-.41-1.11-1.11-1.9-2.18-2.33-3.16"/>
        <path class="cls-12" d="m34.86,208.68c.72.41.72,1.08,0,1.5l-13.99,8.13c-.72.42-1.87.42-2.59,0-.72-.42-.73-1.09,0-1.5l13.99-8.13c.71-.41,1.87-.41,2.59,0Z"/>
        <path class="cls-12" d="m70.74,230.89c.59.34.59.88.01,1.22l-11.39,6.62c-.58.34-1.53.34-2.11,0-.58-.34-.58-.88,0-1.22l11.39-6.62c.58-.34,1.52-.34,2.1,0Z"/>
        <path class="cls-12" d="m80.71,231.63c.58.34.59.88,0,1.22l-21.35,12.41c-.58.34-1.53.34-2.11,0-.59-.34-.58-.89,0-1.22l21.35-12.41c.58-.34,1.53-.34,2.11,0Z"/>
      </g>
    </g>
  </g>
</svg>