<?xml version="1.0" encoding="UTF-8"?>
<svg id="Layer_2" data-name="Layer 2" xmlns="http://www.w3.org/2000/svg" xmlns:xlink="http://www.w3.org/1999/xlink" viewBox="0 0 68.49 53.76">
  <defs>
    <style>
      .cls-1 {
        fill: #11644e;
      }

      .cls-1, .cls-2, .cls-3, .cls-4, .cls-5 {
        stroke-width: 0px;
      }

      .cls-6 {
        filter: url(#drop-shadow-1);
      }

      .cls-2 {
        fill: #efca4f;
      }

      .cls-3 {
        fill: #9bb048;
      }

      .cls-4 {
        fill: #f78346;
      }

      .cls-5 {
        fill: #f2534e;
      }
    </style>
    <filter id="drop-shadow-1" filterUnits="userSpaceOnUse">
      <feOffset dx="3.87" dy="3.87"/>
      <feGaussianBlur result="blur" stdDeviation="0"/>
      <feFlood flood-color="#000" flood-opacity=".1"/>
      <feComposite in2="blur" operator="in"/>
      <feComposite in="SourceGraphic"/>
    </filter>
  </defs>
  <g id="OBJECTS">
    <g class="cls-6">
      <path class="cls-4" d="m60.76,4.93c-.9-3.5-4.46-5.62-7.97-4.72L4.93,12.45C1.42,13.35-.69,16.92.21,20.42l7.27,28.4c.9,3.51,4.46,5.62,7.97,4.72l47.86-12.25c3.5-.9,5.62-4.46,4.72-7.97l-7.27-28.4Z"/>
      <path class="cls-5" d="m60.78,4.98c-.57-2.2-3.21-3.43-5.9-2.74L10.15,13.69c-2.7.69-4.42,3.03-3.86,5.24h0c.57,2.2,3.21,3.43,5.9,2.74l44.73-11.45c2.7-.69,4.42-3.03,3.86-5.24h0Z"/>
      <path class="cls-5" d="m66.94,20.03c-.22-.88-1.12-1.4-1.99-1.18l-13.73,3.52c-.87.22-1.41,1.12-1.18,1.99l1.5,5.84c.22.88,1.12,1.41,1.99,1.18l13.73-3.51c.88-.22,1.4-1.12,1.18-1.99l-1.5-5.84Z"/>
      <path class="cls-2" d="m59.23,25.11c-.37-1.46-1.86-2.34-3.32-1.97-1.46.37-2.34,1.86-1.97,3.32.37,1.46,1.86,2.34,3.32,1.97,1.46-.37,2.34-1.86,1.97-3.32Z"/>
      <path class="cls-3" d="m58.41,5.96l.03.95L12.93,18.55l-.4-10.91c-.03-.9.67-1.66,1.58-1.7l42.6-1.56c.91-.03,1.67.67,1.7,1.58Z"/>
      <path class="cls-1" d="m10.62,19.15l-1.12-5.97c-.17-.89.42-1.74,1.31-1.91L52.72,3.44c.89-.17,1.74.42,1.91,1.31l.56,2.99L10.62,19.15Z"/>
    </g>
  </g>
</svg>