<?xml version="1.0" encoding="UTF-8"?>
<svg id="Layer_2" data-name="Layer 2" xmlns="http://www.w3.org/2000/svg" xmlns:xlink="http://www.w3.org/1999/xlink" viewBox="0 0 180.42 78.71">
  <defs>
    <style>
      .cls-1 {
        fill: url(#linear-gradient);
      }

      .cls-1, .cls-2, .cls-3, .cls-4, .cls-5, .cls-6, .cls-7, .cls-8, .cls-9, .cls-10, .cls-11 {
        stroke-width: 0px;
      }

      .cls-2 {
        fill: #ffb073;
      }

      .cls-3 {
        fill: #d1114d;
      }

      .cls-4 {
        fill: #a1a1a1;
      }

      .cls-5 {
        fill: #fff;
      }

      .cls-6 {
        fill: #d1d1d1;
      }

      .cls-7 {
        fill: #4f4f4f;
      }

      .cls-8 {
        fill: #404040;
      }

      .cls-9 {
        fill: #ebebeb;
      }

      .cls-10 {
        fill: #f26914;
      }

      .cls-11 {
        fill: #efefef;
      }
    </style>
    <linearGradient id="linear-gradient" x1="90.21" y1="35.46" x2="90.21" y2="50.48" gradientUnits="userSpaceOnUse">
      <stop offset="0" stop-color="#f2f2f2"/>
      <stop offset="1" stop-color="#ebebeb"/>
    </linearGradient>
  </defs>
  <g id="OBJECTS">
    <g>
      <path class="cls-9" d="m2.57,60.79s.42,2.92,3.67,3.25c3.25.33,21.58.25,28.92.25h122.5c2.75,0,19.17-4.42,20.17-5.33s1.92-2.67,2.33-5.92.29-8.02,0-9.52-1.54-1.75-1.79-4.31.27-12.69-3.46-19-12.23-15.19-13.6-15.5S137.74-.35,112.36.02s-33.94,2.56-44.31,7c-10.37,4.44-29.75,17.25-30.87,18s-20.5,5.92-25.81,9.27c-5.31,3.35-8.46,10.35-8.79,10.48S.24,46.65.05,47.46s.04,7.04,2.52,13.33Z"/>
      <g>
        <path class="cls-6" d="m99.1,30.95c.05.97-1.57,1.83-3.6,1.93-2.03.1-3.72-.61-3.77-1.58-.05-.97,1.57-1.83,3.6-1.93,2.03-.1,3.72.61,3.77,1.58Z"/>
        <path class="cls-5" d="m100.3,30.89c.02.49-2.15,1-4.85,1.13-2.7.13-4.91-.17-4.93-.66-.02-.49,2.15-1,4.85-1.13,2.7-.13,4.91.17,4.93.66Z"/>
      </g>
      <g>
        <path class="cls-6" d="m149.1,28.84c.05.97-1.57,1.83-3.6,1.93-2.03.1-3.72-.61-3.77-1.58-.05-.97,1.57-1.83,3.6-1.93,2.03-.1,3.72.61,3.77,1.58Z"/>
        <path class="cls-5" d="m150.3,28.78c.02.49-2.15,1-4.85,1.13-2.7.13-4.91-.17-4.93-.66-.02-.49,2.15-1,4.85-1.13,2.7-.13,4.91.17,4.93.66Z"/>
      </g>
      <path class="cls-1" d="m2.57,44.77c-.33.12-2.33,1.88-2.52,2.69s.04,7.04,2.52,13.33c0,0,.42,2.92,3.67,3.25,3.25.33,21.58.25,28.92.25h122.5c2.75,0,19.17-4.42,20.17-5.33s1.92-2.67,2.33-5.92.29-8.02,0-9.52-1.54-1.75-1.79-4.31c-.08-.85-.08-2.54-.18-4.65L3.49,43.3c-.51.87-.83,1.44-.92,1.48Z"/>
      <g>
        <path class="cls-6" d="m10.04,35.25h4.54c.51,0,20.68-6.72,21.57-7.19.74-.39,1.37-1.4,1.11-3.09-.03.02-.07.04-.09.06-.07.04-.2.11-.39.18.13,1.15-.17,2.04-.87,2.41-.8.42-20.57,7.03-21.34,7.14h-3.87c-.23.16-.45.33-.67.5Z"/>
        <path class="cls-6" d="m144.26,4.25c-2.76-1.92-10.34-2.31-15.87-2.6-.74-.04-1.43-.07-2.05-.11-9.28-.55-32.46-.24-42.48,1.92-9.72,2.09-10.42,5.64-10.44,5.79l.49.08s.74-3.37,10.06-5.38c5.6-1.21,15.33-1.83,24.42-2.06-.4,5.42-1.21,10.32-2.08,15.49-.78,4.66-1.59,9.48-2.06,14.74-.93,10.2.16,26.87.31,29.16h-46.32c-.11,0-.23,0-.36.02-.84.05-1.45.03-1.6-.81-2.01-11-2.71-20.78-1.87-26.16.81-5.17,3.64-7.66,3.67-7.68l-.33-.38c-.12.1-3,2.63-3.83,7.99-.85,5.43-.15,15.28,1.88,26.33.2,1.07.99,1.24,1.66,1.24.17,0,.33,0,.47-.02.12,0,.23-.02.33-.02h76.42c2.46,0,4.17-1.39,5.73-4.64,1.63-3.41,3.74-7.53,7.06-12.21,3.63-5.12,5.73-12.78,6.29-15,1.03-4.1.8-8.66-.63-12.5-1.73-4.66-5.51-10.86-8.84-13.18Zm8.99,25.56c-.55,2.2-2.63,9.78-6.21,14.83-3.34,4.72-5.47,8.86-7.1,12.29-1.83,3.84-3.69,4.36-5.27,4.36h-29.6c-.15-2.16-1.24-18.9-.32-29.12.48-5.24,1.28-10.05,2.06-14.7.87-5.2,1.69-10.12,2.09-15.59,6.94-.16,13.45-.08,17.42.15.62.04,1.31.07,2.05.11,5.17.27,12.97.67,15.61,2.51,2.86,1.99,6.75,7.8,8.66,12.94,1.4,3.75,1.62,8.2.62,12.21Z"/>
      </g>
      <g>
        <path class="cls-4" d="m35.15,64.29h14.59c.04-.52.08-1.05.08-1.58,0-10.36-8.39-18.75-18.75-18.75s-18.75,8.39-18.75,18.75c0,.52.04,1.03.08,1.53,6.97.09,17.59.05,22.76.05Z"/>
        <path class="cls-4" d="m177.32,59.23c-1.63-8.69-9.25-15.27-18.42-15.27-10.35,0-18.75,8.39-18.75,18.75,0,.53.04,1.06.08,1.58h17.42c2.54,0,16.71-3.76,19.67-5.06Z"/>
      </g>
      <circle class="cls-8" cx="31.07" cy="62.71" r="16"/>
      <circle class="cls-11" cx="31.07" cy="62.71" r="10.93"/>
      <circle class="cls-8" cx="158.9" cy="62.71" r="16"/>
      <circle class="cls-11" cx="158.9" cy="62.71" r="10.93"/>
      <g>
        <path class="cls-7" d="m151.41,18.38c-1.67-3.5-5.67-12.33-11.17-13.25-3.1-.52-15.14-1.85-29.46-1.86-.54,0-.77.28-.83.7-.06.42-1.83,18.79-1.96,20.38s1.42,1.55,1.42,1.55h0c20.6-.73,40.33-1.42,41.17-1.42,1.67,0,2.5-2.58.83-6.08Z"/>
        <path class="cls-7" d="m103.2,25.08c.12-.62,3-18.33,3.21-19.75.21-1.41.54-2.04-.58-2.02-9.79.21-20.24,1.1-29.42,3.31-7.09,1.71-20.25,10.17-24.58,13.08s-10.08,6.92-8.92,7.83,11.33.33,20.25,0c3.89-.15,20.71-.75,38.58-1.39.71-.03,1.34-.45,1.46-1.07Z"/>
      </g>
      <path class="cls-3" d="m174.9,20.21c-3.11-5.27-9.53-12.3-12.37-14.67-.44.72-.85,1.69-.35,2.36.87,1.19,4.37,4.88,7.69,9s4.12,6,4.75,6.38c.34.21,1.16.56,1.89.58-.42-1.29-.94-2.53-1.6-3.64Z"/>
      <path class="cls-10" d="m177.21,37.13c.09,1.35-.93,2.45-2.28,2.45h0c-1.35,0-2.52-1.1-2.62-2.45l-.39-5.67c-.09-1.35.93-2.45,2.28-2.45h0c1.35,0,2.52,1.1,2.62,2.45l.39,5.67Z"/>
      <path class="cls-2" d="m13.61,36.27c-.21-.13-3-.08-4.72-.04-2.91,2.73-4.91,6.21-5.81,7.75,3.11.24,5.53-.7,6.46-1.09,1.06-.44,3.19-2.38,4.06-3.94s.31-2.5,0-2.69Z"/>
      <path class="cls-7" d="m8.88,59.23l-.88-3.75c-.27-1.14-1.41-2.07-2.56-2.07H.53c.39,2.2,1.02,4.79,2.05,7.38,0,0,.03.21.13.51h4.59c1.14,0,1.85-.93,1.59-2.07Z"/>
    </g>
  </g>
</svg>