<?xml version="1.0" encoding="UTF-8"?>
<svg id="Layer_2" data-name="Layer 2" xmlns="http://www.w3.org/2000/svg" xmlns:xlink="http://www.w3.org/1999/xlink" viewBox="0 0 192.97 74.68">
  <defs>
    <style>
      .cls-1 {
        fill: url(#linear-gradient);
      }

      .cls-1, .cls-2, .cls-3, .cls-4, .cls-5, .cls-6, .cls-7, .cls-8 {
        stroke-width: 0px;
      }

      .cls-2 {
        fill: #e02b61;
      }

      .cls-3 {
        fill: #4f4f4f;
      }

      .cls-4 {
        fill: #404040;
      }

      .cls-5 {
        fill: #ff8c00;
      }

      .cls-6 {
        fill: #fb0;
      }

      .cls-7 {
        fill: #efefef;
      }

      .cls-8 {
        fill: #ffcb3d;
      }
    </style>
    <linearGradient id="linear-gradient" x1="96.48" y1="34.01" x2="96.48" y2="49.45" gradientUnits="userSpaceOnUse">
      <stop offset="0" stop-color="#ffd52b"/>
      <stop offset="1" stop-color="#fb0"/>
    </linearGradient>
  </defs>
  <g id="OBJECTS">
    <g>
      <path class="cls-5" d="m157.93,2.48s9.24.53,9.99.66.96,1.17.25,1.71-3.08,2.42-3.08,2.42l-7.16-4.78Z"/>
      <path class="cls-6" d="m0,57.52c0,2.66.58,5.66,4,6.25,3.42.58,10.08,1.17,12.17,1.17h165.25c3.17,0,7.83-2.67,9.92-6.25s1.58-6.42,1.58-9.67-3.5-7.33-3.5-8.92v-11.17c0-1.67-2.04-4.67-4.44-6.75-2.39-2.08-20.64-18.25-25.89-19.5S106.08-.15,100,.01c-6.08.17-10.83,2.92-12,3.42-1.17.5-33.67,19.08-34.42,19.33s-20.08,3.5-29.08,5.75-15.25,3.33-20.17,9.42C.5,42.68,0,51.52,0,57.52Z"/>
      <path class="cls-1" d="m6.1,36.01c-.61.58-1.2,1.21-1.77,1.92C.5,42.68,0,51.52,0,57.52c0,2.66.58,5.66,4,6.25,3.42.58,10.08,1.17,12.17,1.17h165.25c3.17,0,7.83-2.67,9.92-6.25s1.58-6.42,1.58-9.67-3.5-7.33-3.5-8.92v-4.08H6.1Z"/>
      <g>
        <path class="cls-3" d="m112.29,23.24c.59-.04.82-.51.91-.86.09-.34,2.95-16.78,3.04-17.34.09-.56.4-1.25-.31-1.24h0c-3.99,0-7.74.04-10.76.09-1.75.03-8.87,1.5-13.31,3.94s-17.75,11.31-19.94,13.06-1.81,4.81,2.12,4.81c1.86,0,19.75-1.19,38.25-2.46h0Z"/>
        <path class="cls-3" d="m156.67,18.01c-1-2.69-6.89-11.92-10.81-13-3.19-.88-14.53-1.17-25.37-1.21h0c-.47,0-.69.37-.75.9-.06.53-1.12,16.56-1.09,17.31.03.74.67.75.68.75,18.31-1.26,35.28-2.44,35.66-2.44,1.26,0,2.1-1.21,1.69-2.31Z"/>
      </g>
      <g>
        <path class="cls-5" d="m168.98,39.8c-10.42,0-18.87,8.45-18.87,18.88,0,2.19.39,4.29,1.08,6.25h30.23c1.76,0,4-.83,5.99-2.18.29-1.31.45-2.67.45-4.07,0-10.43-8.45-18.88-18.87-18.88Z"/>
        <path class="cls-5" d="m51.77,64.93c.69-1.96,1.08-4.06,1.08-6.25,0-10.43-8.45-18.88-18.87-18.88s-18.87,8.45-18.87,18.88c0,2.19.39,4.29,1.08,6.25h35.59Z"/>
        <circle class="cls-4" cx="33.98" cy="58.68" r="16"/>
        <path class="cls-7" d="m44.91,58.68c0,6.04-4.9,10.94-10.93,10.94s-10.94-4.9-10.94-10.94,4.9-10.94,10.94-10.94,10.93,4.9,10.93,10.94Z"/>
        <circle class="cls-4" cx="168.98" cy="58.68" r="16"/>
        <path class="cls-7" d="m179.91,58.68c0,6.04-4.9,10.94-10.93,10.94s-10.94-4.9-10.94-10.94,4.9-10.94,10.94-10.94,10.93,4.9,10.93,10.94Z"/>
      </g>
      <g>
        <path class="cls-5" d="m145.27,2.95c-3.14-.47-33.55-1.35-41.44-1.35-1,0-1.63.01-1.93.04-2.92.25-6.03,1.39-7.67,2.35-.2.12-20.27,11.74-26.64,16.2-6.6,4.61-10.61,8-10.67,16.08-.04,4.81.56,8.26,1.04,11.03.34,1.95.63,3.63.63,5.3v7c0,.66,0,2.04,1.79,2.04h78.29c1.97,0,2.45-1.15,2.5-2.11.03-.64.49-4.19,6.2-11.63,1.32-1.71,2.63-3.32,3.91-4.87,3.83-4.67,7.14-8.69,7.95-12.84.93-4.78,1.51-10.46-3.48-17.38-4.65-6.45-7.05-9.33-10.48-9.85ZM60.37,61.14c-1.19,0-1.29-.7-1.29-1.54v-7c0-1.72-.29-3.42-.63-5.39-.48-2.75-1.07-6.18-1.03-10.94.06-8,4.01-11.17,10.46-15.67,6.36-4.44,26.4-16.06,26.61-16.18,1.6-.93,4.61-2.04,7.46-2.28.29-.02.92-.04,1.89-.04,2.87,0,9.17.16,15.04.32-.26,1.45-2.47,8.54-3.07,20.7-.4.57-3.01,4.7-3.19,15.27-.13,7.81.04,14.24.16,18.49.05,1.78.09,3.2.09,4.26h-52.48Zm98.36-31.05c-.79,4.03-4.06,8.01-7.85,12.62-1.28,1.55-2.59,3.16-3.92,4.88-5.65,7.36-6.25,10.98-6.3,11.91-.06,1.12-.7,1.64-2,1.64h-25.31c0-1.07-.04-2.49-.09-4.27-.11-4.25-.29-10.67-.16-18.47.18-11.01,3.11-15,3.14-15.04l.05-.06v-.08c.62-12.43,2.86-19.56,3.09-20.78,11.5.31,23.98.74,25.82,1.02,3.24.49,5.58,3.32,10.15,9.65,4.4,6.1,4.56,11.03,3.39,16.99Z"/>
        <path class="cls-5" d="m19.07,30.85c.39.01.63.1.92.21.57.2,1.27.46,3.29.46s13.25-1.9,16.64-2.48c14.4-2.47,14.47-2.71,14.52-2.87.13-.46-1.21-1.95-3.02-2.98-.24.04-.5.09-.77.14,1.82.88,3.01,2.21,3.26,2.61-2.4.64-27.66,5.08-30.63,5.08-1.93,0-2.59-.24-3.12-.43-.33-.12-.61-.22-1.08-.24-.44-.01-1.42.07-2.49.19-.86.25-1.69.51-2.49.79,1.64-.21,4.21-.52,4.96-.48Z"/>
      </g>
      <path class="cls-3" d="m55.73,24.07c.69.5,2.16.41,3.28-.25,1.12-.66,29.37-18.38,29.75-18.59.37-.22.44-.84.19-1.19-.11-.15-.5-.41-.88-.64-.02,0-.05.02-.06.03-1.12.48-31.38,17.78-34.21,19.23.52.38,1.46,1.06,1.94,1.41Z"/>
      <path class="cls-3" d="m5.58,57.85v-3.58c0-1.66-1.34-3-3-3H.23c-.18,2.22-.23,4.38-.23,6.25,0,1.12.11,2.3.48,3.33h2.1c1.66,0,3-1.34,3-3Z"/>
      <path class="cls-7" d="m1.62,47.74c.18-1.1,1.17-6.81,3.29-8.9s9.92-5.25,10.58-4.96c.67.29-2.25,6.25-4.04,8.79-1.79,2.54-10.08,6.6-9.83,5.06Z"/>
      <path class="cls-5" d="m8.26,42.38c-.31,1.72-1.46,3.12-2.57,3.12s-1.75-1.4-1.44-3.12c.31-1.72,1.46-3.12,2.57-3.12s1.75,1.4,1.44,3.12Z"/>
      <path class="cls-2" d="m11.73,38.98c-.2,1.1-.93,1.99-1.64,1.99s-1.12-.89-.92-1.99c.2-1.1.93-1.99,1.64-1.99s1.12.89.92,1.99Z"/>
      <path class="cls-5" d="m184.98,31.43v5.38c0,1.66,1.34,3,3,3h1.44v-10.87c0-.15-.03-.33-.07-.5h-1.37c-1.66,0-3,1.34-3,3Z"/>
      <path class="cls-3" d="m184.98,22.18c-1.68-1.46-11.14-9.83-18.45-15.14-.2.47-.39,1.15-.06,1.6.54.75,18.12,15.46,18.87,15.88.45.25,1.22.19,1.79-.1-.64-.79-1.37-1.56-2.14-2.23Z"/>
      <path class="cls-8" d="m108.86,27.79h-7.5c-.86,0-1.56.7-1.56,1.56h10.62c0-.86-.7-1.56-1.56-1.56Z"/>
      <path class="cls-5" d="m101.35,30.91h7.5c.86,0,1.56-.7,1.56-1.56h-10.62c0,.86.7,1.56,1.56,1.56Z"/>
      <path class="cls-8" d="m153.85,27.79h-7.5c-.86,0-1.56.7-1.56,1.56h10.62c0-.86-.7-1.56-1.56-1.56Z"/>
      <path class="cls-5" d="m146.35,30.91h7.5c.86,0,1.56-.7,1.56-1.56h-10.62c0,.86.7,1.56,1.56,1.56Z"/>
    </g>
  </g>
</svg>